<?xml version="1.0" encoding="UTF-8" standalone="no"?>
<!DOCTYPE svg PUBLIC "-//W3C//DTD SVG 1.1//EN" "http://www.w3.org/Graphics/SVG/1.1/DTD/svg11.dtd">
<svg width="100%" height="100%" viewBox="0 0 700 225" version="1.1" xmlns="http://www.w3.org/2000/svg" xmlns:xlink="http://www.w3.org/1999/xlink" xml:space="preserve" xmlns:serif="http://www.serif.com/" style="fill-rule:evenodd;clip-rule:evenodd;stroke-linejoin:round;stroke-miterlimit:2;">
    <g transform="matrix(0.5,0,0,0.5,-255,-280)">
        <g transform="matrix(5.03594,5.36863e-32,-4.95996e-32,4.65259,-3404.29,-2403.7)">
            <path d="M777.271,690.733L780.833,690.733L788.018,728.745L788.141,728.745L799.133,690.733L802.572,690.733L813.257,728.745L813.38,728.745L820.442,690.733L824.004,690.733L815.591,733.72L811.66,733.72L800.914,695.768L800.791,695.768L789.676,733.72L785.746,733.72L777.271,690.733Z" style="fill:rgb(15,157,122);fill-rule:nonzero;"/>
        </g>
        <g transform="matrix(5.03594,5.36863e-32,-4.95996e-32,4.65259,-3404.29,-2403.7)">
            <path d="M831.987,690.733L858.639,690.733L858.639,693.926L835.549,693.926L835.549,710.507L856.858,710.507L856.858,713.7L835.549,713.7L835.549,730.526L858.639,730.526L858.639,733.72L831.987,733.72L831.987,690.733Z" style="fill:rgb(15,157,122);fill-rule:nonzero;"/>
        </g>
        <g transform="matrix(5.03594,5.36863e-32,-4.95996e-32,4.65259,-3404.29,-2403.7)">
            <path d="M867.236,690.733L890.572,690.733L895.915,696.014L895.915,708.296L892.844,711.305L897.818,716.279L897.818,728.009L892.107,733.72L867.236,733.72L867.236,690.733ZM889.16,710.568L892.414,707.252L892.414,697.181L889.098,693.865L870.737,693.865L870.737,710.568L889.16,710.568ZM890.511,730.588L894.318,726.78L894.318,717.385L890.511,713.639L870.737,713.639L870.737,730.588L890.511,730.588Z" style="fill:rgb(15,157,122);fill-rule:nonzero;"/>
        </g>
        <g transform="matrix(5.03594,5.36863e-32,-4.95996e-32,4.65259,-3404.29,-2403.7)">
            <path d="M905.495,728.377L905.495,725.122L908.995,725.122L908.995,727.149L912.311,730.526L927.479,730.526L930.857,727.026L930.857,716.586L927.479,713.209L910.96,713.209L905.617,707.928L905.617,696.075L910.96,690.733L928.523,690.733L933.866,696.075L933.866,699.392L930.366,699.392L930.366,697.242L926.988,693.926L912.495,693.926L909.118,697.242L909.118,706.699L912.495,710.015L929.014,710.015L934.357,715.358L934.357,728.254L928.892,733.72L910.837,733.72L905.495,728.377Z" style="fill:rgb(15,157,122);fill-rule:nonzero;"/>
        </g>
        <g transform="matrix(5.03594,5.36863e-32,-4.95996e-32,4.65259,-3404.29,-2403.7)">
            <rect x="943.876" y="690.733" width="3.562" height="42.987" style="fill:rgb(15,157,122);fill-rule:nonzero;"/>
        </g>
        <g transform="matrix(5.03594,5.36863e-32,-4.95996e-32,4.65259,-3404.29,-2403.7)">
            <path d="M968.132,693.865L955.114,693.865L955.114,690.733L984.713,690.733L984.713,693.865L971.694,693.865L971.694,733.72L968.132,733.72L968.132,693.865Z" style="fill:rgb(15,157,122);fill-rule:nonzero;"/>
        </g>
        <g transform="matrix(5.03594,5.36863e-32,-4.95996e-32,4.65259,-3404.29,-2403.7)">
            <path d="M992.082,690.733L1018.73,690.733L1018.73,693.926L995.644,693.926L995.644,710.507L1016.95,710.507L1016.95,713.7L995.644,713.7L995.644,730.526L1018.73,730.526L1018.73,733.72L992.082,733.72L992.082,690.733Z" style="fill:rgb(15,157,122);fill-rule:nonzero;"/>
        </g>
        <g transform="matrix(5.03594,5.36863e-32,-4.95996e-32,4.65259,-3404.29,-2403.7)">
            <path d="M1026.41,728.377L1026.41,725.122L1029.91,725.122L1029.91,727.149L1033.23,730.526L1048.39,730.526L1051.77,727.026L1051.77,716.586L1048.39,713.209L1031.88,713.209L1026.53,707.928L1026.53,696.075L1031.88,690.733L1049.44,690.733L1054.78,696.075L1054.78,699.392L1051.28,699.392L1051.28,697.242L1047.9,693.926L1033.41,693.926L1030.03,697.242L1030.03,706.699L1033.41,710.015L1049.93,710.015L1055.27,715.358L1055.27,728.254L1049.81,733.72L1031.75,733.72L1026.41,728.377Z" style="fill:rgb(15,157,122);fill-rule:nonzero;"/>
        </g>
        <g transform="matrix(5.2574,5.60472e-32,-4.47774e-32,4.20025,-3585.14,-2321.81)">
            <path d="M778.929,686.103L788.18,686.103L788.18,725.897L811.988,725.897L811.988,733.72L778.929,733.72L778.929,686.103Z" style="fill:rgb(15,157,122);fill-rule:nonzero;"/>
        </g>
        <g transform="matrix(5.2574,5.60472e-32,-4.47774e-32,4.20025,-3587.35,-2321.81)">
            <path d="M806.546,686.103L816.07,686.103L827.906,722.7L828.042,722.7L839.878,686.103L849.401,686.103L832.463,733.72L823.484,733.72L806.546,686.103Z" style="fill:rgb(15,157,122);fill-rule:nonzero;"/>
        </g>
        <g transform="matrix(5.2574,5.60472e-32,-4.47774e-32,4.20025,-3583.53,-2321.81)">
            <path d="M867.019,709.163L851.102,686.103L861.509,686.103L872.257,701.749L883.004,686.103L893.412,686.103L877.495,709.435L894.092,733.72L883.685,733.72L872.257,716.918L860.829,733.72L850.421,733.72L867.019,709.163ZM869.342,711.624L856.982,729.91L859.423,729.91L872.257,711.042L885.091,729.91C885.091,729.91 887.484,729.91 887.484,729.91L873.491,709.438L886.811,689.913C886.811,689.913 884.401,689.913 884.401,689.913L872.257,707.591L860.112,689.913L857.753,689.913L871.023,709.137L869.342,711.624Z" style="fill:rgb(15,157,122);"/>
        </g>
    </g>
</svg>
