<?xml version="1.0" encoding="UTF-8" standalone="no"?>
<!DOCTYPE svg PUBLIC "-//W3C//DTD SVG 1.1//EN" "http://www.w3.org/Graphics/SVG/1.1/DTD/svg11.dtd">
<svg width="100%" height="100%" viewBox="0 0 3840 2160" version="1.1" xmlns="http://www.w3.org/2000/svg" xmlns:xlink="http://www.w3.org/1999/xlink" xml:space="preserve" xmlns:serif="http://www.serif.com/" style="fill-rule:evenodd;clip-rule:evenodd;stroke-linejoin:round;stroke-miterlimit:2;">
    <g transform="matrix(1,0,0,1,-1862.9,-424.33)">
        <path d="M2579.12,489.741C2581.16,488.826 2582.68,487.26 2583.62,485.411L2687.91,534.162C2686.19,537.968 2685.74,542.312 2686.86,546.5L2538.95,592.22L2538.87,591.98C2538.36,590.845 2537.47,590.013 2536.42,589.534L2572.7,490.167C2574.76,490.752 2577.02,490.685 2579.12,489.741ZM2697.78,525.798C2700.35,524.646 2703.05,524.174 2705.68,524.274L2704.97,533.171C2703.78,533.168 2702.57,533.391 2701.41,533.911C2699.68,534.686 2698.35,535.97 2697.48,537.496L2689.36,533.702C2691.14,530.329 2694.02,527.483 2697.78,525.798ZM2713.18,444.163C2713.5,444.175 2713.81,444.146 2714.13,444.101L2737.5,552.91C2737.06,553.054 2736.63,553.24 2736.23,553.516C2735.66,553.914 2735.2,554.413 2734.86,554.971L2721.9,548.914C2723.94,544.296 2724.12,538.908 2721.92,533.983C2719.12,527.745 2713.22,523.851 2706.8,523.235L2713.18,444.163ZM2900.83,638.335L2827.58,964.501C2827.35,964.479 2827.11,964.47 2826.87,964.478L2740.45,562.188C2740.92,562.044 2741.37,561.851 2741.79,561.56C2742.4,561.142 2742.87,560.607 2743.22,560.014L2897.72,632.233C2897.38,633.339 2897.4,634.558 2897.91,635.693C2898.49,636.999 2899.58,637.912 2900.83,638.335ZM2854.36,962.357C2853.37,962.342 2852.37,962.61 2851.5,963.213C2850.17,964.135 2849.45,965.601 2849.41,967.104L2831.88,968.301C2831.81,967.986 2831.71,967.675 2831.58,967.368C2830.98,966.044 2829.87,965.126 2828.59,964.711L2900,646.77L2854.36,962.357ZM2970.71,959.754C2970.72,959.895 2970.73,960.035 2970.74,960.177L2856.99,979.943C2856.92,979.707 2856.86,979.469 2856.76,979.236C2856.1,977.771 2854.81,976.797 2853.35,976.464L2853.99,972.097C2855.04,972.162 2856.13,971.906 2857.06,971.258C2858.39,970.336 2859.11,968.875 2859.16,967.373L2970.71,959.754ZM2976.2,968.521L2808.12,1314.86C2806.98,1314.36 2805.8,1313.98 2804.57,1313.76L2849.07,1006.05C2850.1,1006.09 2851.15,1005.83 2852.05,1005.2C2853.77,1004.02 2854.48,1001.93 2854.01,1000.01L2971.2,962.462C2971.31,962.81 2971.43,963.156 2971.58,963.499C2972.58,965.717 2974.23,967.41 2976.2,968.521ZM2983.77,969.722L3028.74,1143.29C3028.35,1143.43 3027.96,1143.61 3027.6,1143.86C3025.44,1145.35 3024.87,1148.27 3026.26,1150.48L2813.62,1318.97C2812.33,1317.45 2810.77,1316.21 2809.04,1315.31L2977.13,968.975C2979.18,969.891 2981.49,970.195 2983.77,969.722ZM3386.09,870.296L3180.02,1264.6C3178.57,1264.06 3176.89,1264.2 3175.52,1265.15C3174.05,1266.17 3173.33,1267.84 3173.44,1269.5L3085.12,1283.5C3084.86,1282.06 3084.45,1280.62 3083.82,1279.22C3080.12,1270.95 3070.96,1266.79 3062.37,1268.95L3032.17,1152.42C3032.51,1152.28 3032.85,1152.12 3033.16,1151.9C3035.33,1150.4 3035.9,1147.47 3034.5,1145.26L3383.88,868.423C3384.53,869.162 3385.27,869.8 3386.09,870.296ZM3391.95,871.527L3453.16,1236.18C3452.89,1236.25 3452.61,1236.33 3452.35,1236.45C3450.6,1237.23 3449.55,1238.91 3449.47,1240.71L3260.84,1255.98C3260.77,1255.63 3260.67,1255.28 3260.51,1254.93C3259.4,1252.45 3256.48,1251.34 3254,1252.45C3252.1,1253.31 3251.01,1255.22 3251.1,1257.18L3183.02,1267.98C3182.88,1267.43 3182.66,1266.89 3182.32,1266.39C3181.94,1265.84 3181.47,1265.4 3180.94,1265.06L3387.02,870.75C3388.55,871.448 3390.24,871.72 3391.95,871.527ZM3456.38,1245.44C3456.7,1245.3 3457,1245.12 3457.27,1244.92L3520.07,1318.72C3519.05,1319.86 3518.61,1321.43 3518.91,1322.95L3093.33,1453.32C3093.13,1452.63 3092.91,1451.95 3092.6,1451.28C3091.89,1449.69 3090.94,1448.29 3089.81,1447.09L3163.3,1363.35C3164.7,1364.5 3166.67,1364.85 3168.44,1364.06C3170.77,1363.02 3171.87,1360.39 3171.07,1358.02L3450.02,1243.22C3451.22,1245.51 3453.99,1246.51 3456.38,1245.44ZM3844.07,1220.04C3844.15,1221.09 3844.32,1222.15 3844.58,1223.19L3528.26,1320.09L3528.23,1319.99C3527.12,1317.5 3524.21,1316.39 3521.72,1317.51C3521.4,1317.65 3521.1,1317.83 3520.83,1318.03L3458.03,1244.23C3458.8,1243.36 3459.23,1242.25 3459.27,1241.09L3844.07,1220.04ZM3855.55,1202.69C3864.39,1198.72 3874.77,1202.6 3878.68,1211.33C3882.27,1219.34 3879.16,1228.69 3871.78,1233.23L3867.13,1225.63C3870.69,1223.41 3872.19,1218.9 3870.45,1215.01C3868.54,1210.76 3863.5,1208.87 3859.19,1210.8C3856.04,1212.21 3854.18,1215.26 3854.12,1218.46L3845.11,1218.96C3845.01,1212.19 3848.93,1205.65 3855.55,1202.69ZM3871.47,1234.69L4221.26,1805.89C4219.08,1807.39 4217.69,1809.69 4217.3,1812.2L3646.01,1755.27C3646.15,1753.7 3645.95,1752.08 3645.26,1750.54C3644.38,1748.56 3642.88,1747.08 3641.1,1746.13L3718.9,1561.31C3720.39,1562.08 3722.19,1562.21 3723.84,1561.47C3726.73,1560.17 3728.02,1556.78 3726.73,1553.89C3726.05,1552.37 3724.78,1551.31 3723.32,1550.82L3855.92,1235.81C3860.38,1237.47 3865.48,1237.45 3870.19,1235.35C3870.63,1235.15 3871.05,1234.92 3871.47,1234.69ZM4217.18,1813.8L3648.31,1854.93C3648.25,1854.42 3648.15,1853.92 3647.93,1853.43C3647.16,1851.71 3645.51,1850.67 3643.75,1850.55L3637.97,1763.69C3638.83,1763.57 3639.68,1763.37 3640.51,1763C3643.4,1761.71 3645.29,1759.15 3645.88,1756.28L4217.22,1813.22C4217.21,1813.42 4217.17,1813.61 4217.18,1813.8ZM4218,1817.5C4218.97,1819.67 4220.68,1821.26 4222.69,1822.17L4028.28,2315.89C4026.2,2315.27 4023.9,2315.33 4021.75,2316.29C4020.1,2317.03 4018.79,2318.2 4017.84,2319.6L3627.12,2063.08C3627.67,2061.84 3627.74,2060.39 3627.14,2059.05C3626.43,2057.47 3624.99,2056.45 3623.4,2056.21L3643.62,1860.36C3644.23,1860.34 3644.85,1860.21 3645.45,1859.94C3647.1,1859.2 3648.13,1857.65 3648.31,1855.96L4217.29,1814.83C4217.41,1815.73 4217.61,1816.62 4218,1817.5ZM4016.83,2328.22L3628.53,2500.62C3627.29,2499.16 3625.54,2498.27 3623.65,2498.1L3617.03,2138.99C3619.21,2138.85 3621.4,2138.35 3623.52,2137.4C3627.29,2135.71 3630.21,2132.92 3632.12,2129.6L4016.84,2321.46C4016.01,2323.57 4015.98,2325.97 4016.83,2328.22ZM3621.64,2498.17L3484.12,2154.82C3485.88,2153.89 3486.86,2152.03 3486.73,2150.12L3597.96,2125.39C3598.21,2126.34 3598.51,2127.28 3598.92,2128.2C3602,2135.07 3608.85,2139.11 3616.01,2139.04L3622.62,2498.05C3622.3,2498.07 3621.97,2498.12 3621.64,2498.17ZM3619.92,2498.68L3418.95,2253.89C3420.38,2252.48 3420.87,2250.3 3420,2248.37C3419.57,2247.4 3418.86,2246.65 3418.01,2246.15L3479.53,2154.81C3480.62,2155.39 3481.92,2155.55 3483.16,2155.2L3620.64,2498.44C3620.4,2498.52 3620.16,2498.57 3619.92,2498.68ZM3233.74,2517.9C3232.54,2517.14 3231.26,2516.53 3229.91,2516.07L3341.88,2166.49C3342.79,2166.63 3343.75,2166.53 3344.65,2166.13C3344.88,2166.03 3345.08,2165.89 3345.29,2165.77L3411.96,2246.97C3410.61,2248.38 3410.16,2250.52 3411.01,2252.4C3411.21,2252.84 3411.47,2253.22 3411.78,2253.57L3233.74,2517.9ZM3228.11,2526.27C3227.71,2526.02 3227.28,2525.82 3226.84,2525.64L3229.57,2517.13C3230.82,2517.55 3232.01,2518.12 3233.13,2518.82L3228.11,2526.27ZM3239.67,2526.33C3243.58,2535.05 3239.57,2545.37 3230.73,2549.34C3221.88,2553.3 3211.51,2549.42 3207.6,2540.7C3206.45,2538.13 3206,2535.43 3206.15,2532.79L3215.1,2533.62C3215.11,2534.75 3215.33,2535.91 3215.83,2537.01C3217.73,2541.27 3222.78,2543.15 3227.09,2541.22C3231.4,2539.29 3233.35,2534.27 3231.44,2530.01C3230.87,2528.73 3229.98,2527.69 3228.94,2526.87L3233.98,2519.4C3236.38,2521.11 3238.38,2523.45 3239.67,2526.33ZM3206.23,2531.77C3206.65,2528.01 3208.29,2524.43 3210.95,2521.64L3217.61,2527.59C3216.25,2528.96 3215.42,2530.72 3215.18,2532.6L3206.23,2531.77ZM2912.01,2504.56C2912.01,2503.72 2911.86,2502.86 2911.49,2502.04C2910.4,2499.61 2907.92,2498.27 2905.41,2498.5L2854.88,2210.72C2855.46,2210.58 2856.04,2210.4 2856.6,2210.15C2857.69,2209.66 2858.62,2208.97 2859.42,2208.18L3210.12,2520.91C3207.31,2523.87 3205.57,2527.67 3205.13,2531.67L2912.01,2504.56ZM2762.42,2552.2C2762.36,2552.08 2762.34,2551.95 2762.29,2551.82C2760.16,2547.07 2754.58,2544.94 2749.83,2547.07C2748.33,2547.74 2747.14,2548.77 2746.21,2549.99L2539.5,2409.95C2539.74,2409.54 2539.93,2409.1 2540.08,2408.65L2899.97,2503.48C2899.82,2504.28 2899.85,2505.13 2900.06,2505.95L2762.42,2552.2ZM2540.36,2407.66C2540.63,2406.25 2540.49,2404.74 2539.86,2403.33C2539.11,2401.67 2537.81,2400.45 2536.28,2399.73L2611.65,2203.02C2616.04,2204.58 2621.02,2204.53 2625.62,2202.47C2627.11,2201.8 2628.44,2200.95 2629.66,2199.99L2900.72,2501.45C2900.53,2501.78 2900.36,2502.12 2900.23,2502.48L2540.36,2407.66ZM2615.25,2193.63C2617.23,2194.29 2619.46,2194.27 2621.53,2193.34C2622.04,2193.11 2622.51,2192.83 2622.95,2192.53L2628.91,2199.16C2627.78,2200.05 2626.54,2200.84 2625.17,2201.46C2620.85,2203.39 2616.17,2203.44 2612.05,2201.99L2615.25,2193.63ZM2602.04,2192.82C2598.6,2185.13 2601.31,2176.21 2608.04,2171.48L2612.8,2179.07C2609.82,2181.43 2608.66,2185.54 2610.27,2189.13C2611.11,2191.01 2612.58,2192.39 2614.32,2193.22L2611.1,2201.61C2607.2,2199.97 2603.89,2196.95 2602.04,2192.82ZM2608.31,2169.99L2551.49,2079.42C2554.71,2077.55 2556.08,2073.54 2554.53,2070.06C2553.58,2067.94 2551.74,2066.52 2549.66,2065.98L2573.53,2001.39C2577.74,2002.68 2582.42,2002.53 2586.75,2000.59C2592.95,1997.81 2596.9,1992.09 2597.69,1985.86L2612.35,1987.18C2612.35,1987.86 2612.48,1988.55 2612.77,1989.21C2613.89,1991.69 2616.8,1992.8 2619.29,1991.69C2620.83,1991 2621.84,1989.61 2622.12,1988.06L2637.49,1989.45C2637.47,1990.45 2637.73,1991.47 2638.35,1992.35C2639.68,1994.28 2642.15,1994.95 2644.24,1994.09L2686.21,2076.13C2684.31,2077.46 2683.55,2079.99 2684.53,2082.19C2684.82,2082.82 2685.22,2083.36 2685.7,2083.8L2627.88,2169.83C2622.82,2166.78 2616.37,2166.18 2610.53,2168.79C2609.75,2169.14 2609.02,2169.55 2608.31,2169.99ZM2577.03,1991.92C2578.85,1992.38 2580.82,1992.29 2582.67,1991.47C2585.43,1990.23 2587.21,1987.71 2587.64,1984.94L2596.58,1985.76C2595.83,1991.6 2592.12,1996.97 2586.3,1999.58C2582.24,2001.4 2577.85,2001.55 2573.92,2000.35L2577.03,1991.92ZM2563.18,1990.94C2559.27,1982.21 2563.28,1971.89 2572.12,1967.93C2573.52,1967.3 2574.95,1966.9 2576.4,1966.65L2577.44,1975.49C2576.87,1975.61 2576.31,1975.8 2575.76,1976.04C2571.45,1977.97 2569.5,1983 2571.4,1987.25C2572.34,1989.35 2574.04,1990.86 2576.04,1991.63L2572.94,2000.03C2568.73,1998.47 2565.14,1995.32 2563.18,1990.94ZM2578.36,1975.34L2577.32,1966.5C2584.7,1965.64 2592.08,1969.52 2595.25,1976.57C2596.43,1979.22 2596.88,1982.01 2596.69,1984.73L2587.72,1983.92C2587.76,1982.7 2587.55,1981.45 2587.02,1980.25C2585.49,1976.84 2581.94,1974.95 2578.36,1975.34ZM2562.01,1837C2562.18,1836.95 2562.35,1836.92 2562.52,1836.86L2615.22,1982.72C2613.75,1983.39 2612.79,1984.69 2612.47,1986.16L2597.8,1984.83C2598,1981.93 2597.53,1978.94 2596.26,1976.12C2592.9,1968.61 2585.04,1964.48 2577.19,1965.4L2562.01,1837ZM2501.82,1706.47L2590.61,1813.65C2588.99,1815.29 2588.71,1817.89 2590.07,1819.85C2591.59,1822.05 2594.59,1822.61 2596.81,1821.13L2740.77,1994.9C2740.01,1995.64 2739.5,1996.6 2739.33,1997.63L2647.23,1989.3C2647.19,1988.43 2646.92,1987.56 2646.39,1986.79C2645.1,1984.93 2642.77,1984.26 2640.74,1984.98L2564.36,1835.68C2565.6,1834.39 2566.05,1832.49 2565.47,1830.72L2565.04,1829.78C2563.9,1827.82 2561.57,1826.91 2559.41,1827.55L2500.71,1707.24C2501.1,1707 2501.47,1706.75 2501.82,1706.47ZM2418.76,1868.46C2416.52,1867.61 2413.94,1867.61 2411.57,1868.67C2410.02,1869.37 2408.79,1870.45 2407.85,1871.73L2234.24,1758.66C2234.9,1757.38 2235.01,1755.82 2234.37,1754.41C2234.23,1754.1 2234.06,1753.81 2233.87,1753.54L2296.6,1692.7C2298.24,1694.1 2300.67,1694.3 2302.54,1693.01C2303.71,1692.2 2304.4,1690.96 2304.58,1689.65L2484.26,1697.95C2484.27,1699.4 2484.57,1700.88 2485.2,1702.3C2486.23,1704.59 2487.97,1706.32 2490.02,1707.42L2418.76,1868.46ZM2406.39,1879.85L2192.39,1953.63C2192.25,1953.26 2192.12,1952.89 2191.96,1952.53C2189.62,1947.31 2185.09,1943.73 2179.89,1942.37L2216.36,1806.99C2217.57,1807.19 2218.85,1806.95 2219.94,1806.2C2220.74,1805.64 2221.31,1804.89 2221.66,1804.05L2406.48,1874.42C2405.93,1876.15 2405.87,1878.02 2406.39,1879.85ZM2182.05,1975.85C2173.25,1979.79 2162.93,1975.94 2159.05,1967.28C2158.72,1966.54 2158.47,1965.8 2158.25,1965.05L2166.91,1962.64C2167.01,1962.97 2167.09,1963.29 2167.23,1963.61C2169.13,1967.84 2174.14,1969.71 2178.43,1967.79C2182.31,1966.05 2184.24,1961.81 2183.18,1957.88L2191.68,1954.96C2194.2,1963.16 2190.18,1972.2 2182.05,1975.85ZM2157.98,1964.06C2156.23,1956.3 2160.15,1948.08 2167.7,1944.54L2171.25,1952.66C2167.83,1954.37 2166.03,1958.06 2166.66,1961.65L2157.98,1964.06ZM1966.43,2017.27C1966.31,2016.88 1966.22,2016.5 1966.05,2016.13C1965.76,2015.49 1965.4,2014.9 1965,2014.36L2125.94,1858.24C2127.13,1859.22 2128.74,1859.62 2130.28,1859.22L2167.25,1943.53C2159.19,1947.29 2155.03,1956.08 2156.92,1964.35L1966.43,2017.27ZM1962.64,2012.15L2034.93,1856.34C2037.23,1857.26 2039.86,1857.29 2042.29,1856.21C2047.04,1854.08 2049.17,1848.5 2047.04,1843.75C2046.15,1841.75 2044.63,1840.26 2042.83,1839.31L2075.63,1768.64C2080.22,1770.61 2085.6,1770.75 2090.54,1768.58L2126.39,1850.34C2124.39,1851.64 2123.57,1854.22 2124.57,1856.47C2124.75,1856.85 2124.97,1857.19 2125.22,1857.5L1964.32,2013.59C1963.81,2013.04 1963.25,2012.55 1962.64,2012.15ZM2039.64,1838.28L2046.91,1740.51C2047.83,1740.49 2048.75,1740.21 2049.57,1739.65C2050.23,1739.19 2050.72,1738.59 2051.08,1737.92L2066.19,1744.23C2064.08,1748.88 2063.87,1754.34 2066.1,1759.32C2067.9,1763.34 2071,1766.39 2074.68,1768.22L2041.91,1838.85C2041.19,1838.56 2040.42,1838.38 2039.64,1838.28ZM2034.58,1839C2033.93,1839.29 2033.34,1839.65 2032.8,1840.06L1899.72,1681C1901.27,1679.65 1902.51,1678.01 1903.4,1676.21L2042.13,1734.18C2041.7,1735.57 2041.87,1737.12 2042.76,1738.41C2043.53,1739.51 2044.66,1740.2 2045.88,1740.43L2038.62,1838.2C2037.27,1838.18 2035.89,1838.41 2034.58,1839ZM1904.87,1671.19L2046.27,1677.72C2046.3,1678.31 2046.42,1678.91 2046.68,1679.48C2047.36,1680.99 2048.7,1681.98 2050.2,1682.29L2046.6,1730.75C2045.7,1730.79 2044.8,1731.06 2044,1731.61C2043.37,1732.04 2042.89,1732.61 2042.54,1733.23L1903.81,1675.26C1904.35,1673.96 1904.7,1672.6 1904.87,1671.19ZM1904.9,1667.82L2245.79,1607.11C2245.86,1607.4 2245.95,1607.7 2246.08,1607.99C2246.75,1609.48 2248.07,1610.46 2249.56,1610.78L2239.61,1681.32C2238.6,1681.29 2237.57,1681.55 2236.68,1682.17C2235.55,1682.95 2234.85,1684.13 2234.64,1685.39L2056.08,1677.15C2056.04,1676.58 2055.92,1676 2055.68,1675.45C2054.92,1673.78 2053.35,1672.75 2051.63,1672.59L2050.61,1672.6C2050.12,1672.66 2049.63,1672.76 2049.16,1672.97C2047.59,1673.68 2046.57,1675.11 2046.32,1676.7L1904.96,1670.17C1905,1669.39 1904.98,1668.61 1904.9,1667.82ZM1904.53,1665.69L2048.7,1618.27C2048.8,1618.46 2048.89,1618.65 2049.02,1618.83C2050.55,1621.05 2053.6,1621.61 2055.82,1620.07C2057.43,1618.96 2058.14,1617.06 2057.85,1615.26L2220.55,1561.74C2220.68,1562.01 2220.82,1562.27 2220.99,1562.53C2222.33,1564.46 2224.8,1565.12 2226.88,1564.26L2247.76,1601.94C2246.39,1602.89 2245.61,1604.46 2245.65,1606.09L1904.76,1666.8C1904.69,1666.43 1904.62,1666.06 1904.53,1665.69ZM1903.64,1663.08C1902.83,1661.27 1901.71,1659.7 1900.37,1658.39L2054.01,1491.14C2054.72,1491.68 2055.57,1492.02 2056.47,1492.11L2052.6,1611.2C2051.79,1611.28 2050.98,1611.53 2050.26,1612.03C2048.51,1613.24 2047.81,1615.37 2048.33,1617.31L1904.26,1664.7C1904.08,1664.16 1903.88,1663.61 1903.64,1663.08ZM1896.21,1655.47L2062.7,1274.52C2062.97,1274.62 2063.24,1274.69 2063.52,1274.74L2056.78,1482.31C2056.17,1482.33 2055.55,1482.47 2054.96,1482.73C2052.47,1483.85 2051.36,1486.76 2052.47,1489.24C2052.67,1489.69 2052.95,1490.08 2053.25,1490.44L1899.61,1657.7C1898.57,1656.81 1897.43,1656.06 1896.21,1655.47ZM2068.83,1267.86C2068.54,1267.2 2068.1,1266.64 2067.59,1266.19L2199.63,1102.39C2200.35,1102.86 2201.17,1103.13 2202.03,1103.19L2210.79,1311.21C2209.45,1311.18 2208.08,1311.41 2206.78,1312C2204.59,1312.98 2202.99,1314.71 2202.07,1316.74L2068.97,1271.53C2069.38,1270.38 2069.37,1269.07 2068.83,1267.86ZM2062.32,1265.38C2061,1265.98 2060.08,1267.09 2059.67,1268.37L1882.74,1208.27C1882.74,1208.01 1882.71,1207.73 1882.67,1207.46L2197.87,1100.36C2198.13,1100.92 2198.49,1101.4 2198.91,1101.81L2066.83,1265.64C2065.5,1264.86 2063.84,1264.7 2062.32,1265.38ZM1882.37,1206.38L2113.23,1063.69C2114.83,1065.67 2117.69,1066.13 2119.8,1064.66C2121.31,1063.62 2122.03,1061.88 2121.87,1060.18L2224.31,1040.37C2224.45,1040.86 2224.66,1041.35 2224.96,1041.79C2225.39,1042.41 2225.94,1042.88 2226.55,1043.24L2203.91,1093.65C2202.78,1093.26 2201.51,1093.27 2200.32,1093.8C2198.14,1094.77 2197.02,1097.14 2197.53,1099.38L1882.4,1206.46L1882.37,1206.38ZM1982.58,948.101C1983.95,948.499 1985.47,948.322 1986.73,947.451C1988,946.574 1988.7,945.205 1988.8,943.779L2079.03,941.621C2079.12,942.401 2079.37,943.173 2079.85,943.864C2080.63,944.988 2081.79,945.683 2083.04,945.896L2074.31,1044.31C2073.38,1044.33 2072.43,1044.61 2071.6,1045.18C2069.42,1046.69 2068.86,1049.64 2070.29,1051.85L1881.37,1204.89L1880.93,1204.45C1880.72,1204.27 1880.48,1204.12 1880.24,1203.98L1982.58,948.101ZM2122.37,940.584C2122.46,941.348 2122.71,942.104 2123.18,942.782C2124.71,945.003 2127.76,945.558 2129.98,944.022C2131.7,942.831 2132.41,940.737 2131.93,938.819L2268.47,890.379C2268.57,890.594 2268.68,890.806 2268.82,891.011L2181.89,961.437C2180.25,959.759 2177.61,959.442 2175.62,960.819C2173.42,962.341 2172.86,965.339 2174.34,967.554L2077.82,1045.74C2077.11,1045.02 2076.2,1044.56 2075.24,1044.39L2083.97,945.969C2084.9,945.95 2085.83,945.672 2086.65,945.104C2087.93,944.219 2088.64,942.831 2088.73,941.389L2122.37,940.584ZM2417.43,866.907C2417.68,868.382 2418.1,869.847 2418.74,871.271C2419.02,871.897 2419.34,872.5 2419.68,873.079L2262.27,970.367C2260.69,968.34 2257.8,967.86 2255.65,969.343C2254.58,970.087 2253.9,971.188 2253.66,972.376L2183.29,964.751C2183.27,963.857 2183,962.961 2182.48,962.161L2269.41,891.734C2271.05,893.401 2273.68,893.71 2275.67,892.337C2277.12,891.335 2277.84,889.69 2277.76,888.051L2417.43,866.907ZM2419.08,858.603L2427.57,861.411C2427.29,862.397 2427.19,863.434 2427.29,864.472L2418.37,865.822C2418.08,863.37 2418.35,860.914 2419.08,858.603ZM2296.89,817.172C2297.22,815.857 2297.02,814.418 2296.19,813.216C2295.92,812.821 2295.58,812.5 2295.23,812.213L2409.42,639.589C2411.13,640.546 2413.11,640.977 2415.1,640.741L2433.68,845.301C2431.85,845.52 2430.02,846 2428.24,846.796C2423.46,848.941 2420.01,852.838 2418.33,857.371L2296.89,817.172ZM2529.92,596.09C2530.4,597.102 2531.18,597.865 2532.11,598.347L2441.65,846.062C2439.41,845.343 2437.02,845.051 2434.61,845.216L2416.03,640.568C2416.63,640.434 2417.23,640.258 2417.82,639.996C2422.06,638.097 2424.19,633.461 2423.09,629.108L2529.92,596.09ZM2696.53,543.513L2687.92,546.17C2686.89,542.253 2687.3,538.192 2688.92,534.631L2697.02,538.416C2696.35,540.004 2696.14,541.779 2696.53,543.513ZM2712.8,544.661C2713.62,542.614 2713.64,540.274 2712.68,538.121C2711.43,535.34 2708.84,533.598 2705.99,533.244L2706.71,524.34C2712.74,524.926 2718.28,528.579 2720.9,534.437C2722.97,539.056 2722.8,544.112 2720.89,548.444L2712.8,544.661ZM2709.11,558.423C2700.99,560.514 2692.33,556.613 2688.83,548.808C2688.59,548.266 2688.38,547.716 2688.2,547.167L2696.85,544.491C2696.92,544.702 2696.96,544.916 2697.06,545.122C2698.72,548.845 2702.79,550.752 2706.67,549.884L2709.11,558.423ZM2711.96,557.446C2711.34,557.72 2710.73,557.948 2710.11,558.146L2707.65,549.558C2707.88,549.479 2708.1,549.432 2708.32,549.334C2710.12,548.53 2711.47,547.178 2712.34,545.582L2720.46,549.379C2718.7,552.828 2715.78,555.731 2711.96,557.446ZM2850.94,985.978L2849.45,996.312C2848.43,996.274 2847.39,996.537 2846.49,997.158C2844.85,998.293 2844.13,1000.25 2844.47,1002.09L2822.11,1009.25C2821.99,1008.96 2821.83,1008.67 2821.64,1008.4C2821.02,1007.5 2820.15,1006.89 2819.19,1006.57L2826.45,974.253C2827.32,974.369 2828.23,974.265 2829.09,973.88C2830.06,973.447 2830.81,972.744 2831.31,971.899L2847.59,979.707C2847.22,980.836 2847.24,982.096 2847.76,983.269C2848.38,984.658 2849.58,985.595 2850.94,985.978ZM2799.59,1313.7L2780.65,1210.18C2781.87,1209.91 2783.09,1209.51 2784.27,1208.98C2793.67,1204.77 2797.93,1193.79 2793.77,1184.51C2791.4,1179.21 2786.8,1175.6 2781.53,1174.25L2817.07,1016.02C2818.21,1016.15 2819.39,1015.91 2820.4,1015.2C2822.08,1014.04 2822.8,1012.02 2822.4,1010.14L2844.74,1002.98C2844.87,1003.32 2845.04,1003.65 2845.25,1003.96C2845.95,1004.97 2846.96,1005.61 2848.06,1005.9L2803.55,1313.62C2802.25,1313.48 2800.92,1313.5 2799.59,1313.7ZM2221.49,1319.76L2678.17,1284.12C2678.24,1284.48 2678.35,1284.83 2678.5,1285.18C2679.61,1287.66 2682.53,1288.77 2685.01,1287.66C2686.06,1287.18 2686.85,1286.38 2687.34,1285.43L2787.3,1323.89C2786.82,1325.27 2786.54,1326.72 2786.46,1328.2L2221.49,1319.76ZM2569.77,1368.59C2569.63,1368.18 2569.45,1367.78 2569.19,1367.41C2567.66,1365.19 2564.61,1364.63 2562.39,1366.17C2561,1367.13 2560.27,1368.67 2560.28,1370.24L2327.7,1410.5C2327.64,1410.32 2327.6,1410.14 2327.52,1409.96C2326.41,1407.48 2323.49,1406.37 2321.01,1407.48C2320.46,1407.72 2319.98,1408.07 2319.58,1408.47L2218.77,1325.32C2219.57,1323.94 2220,1322.38 2220.03,1320.77L2786.44,1329.23C2786.45,1329.84 2786.5,1330.45 2786.59,1331.06L2569.77,1368.59ZM2789.28,1337.87L2789.92,1338.68C2790.16,1338.98 2790.42,1339.24 2790.68,1339.51L2640.81,1502.76C2639.42,1501.7 2637.51,1501.39 2635.8,1502.16C2635.49,1502.3 2635.2,1502.47 2634.93,1502.66L2612.63,1479.13C2613.79,1477.73 2614.15,1475.75 2613.35,1473.98C2613.27,1473.79 2613.15,1473.62 2613.05,1473.45L2612.43,1472.63C2611.18,1471.31 2609.29,1470.75 2607.51,1471.26L2567.45,1374.48C2567.62,1374.39 2567.79,1374.32 2567.95,1374.21C2569.5,1373.14 2570.21,1371.34 2570,1369.6L2786.76,1332.07C2786.98,1333.15 2787.32,1334.21 2787.78,1335.25C2788.21,1336.19 2788.71,1337.06 2789.28,1337.87ZM3063.9,1278.95C3063.7,1279.02 3063.51,1279.06 3063.32,1279.15C3059.86,1280.69 3057.96,1284.22 3058.31,1287.75L3049.38,1289.17C3048.45,1281.77 3052.45,1274.27 3059.68,1271.03C3060.33,1270.74 3060.99,1270.51 3061.65,1270.3L3063.9,1278.95ZM3075.13,1285.09C3075.01,1284.5 3074.83,1283.92 3074.58,1283.36C3072.9,1279.6 3068.78,1277.7 3064.87,1278.63L3062.64,1270.02C3070.73,1268 3079.33,1271.91 3082.81,1279.67C3083.39,1280.98 3083.78,1282.33 3084.02,1283.68L3075.13,1285.09ZM3073.86,1302.68C3065.02,1306.64 3054.65,1302.77 3050.74,1294.04C3050.17,1292.78 3049.79,1291.49 3049.55,1290.19L3058.44,1288.78C3058.56,1289.31 3058.73,1289.84 3058.96,1290.36C3060.87,1294.61 3065.91,1296.5 3070.23,1294.57C3073.63,1293.04 3075.53,1289.59 3075.25,1286.11L3084.19,1284.69C3085.04,1292.04 3081.05,1299.46 3073.86,1302.68ZM3087.03,1444.73L3130.53,1361.5C3131.52,1361.72 3132.59,1361.64 3133.59,1361.2C3136.07,1360.08 3137.18,1357.16 3136.07,1354.68C3135.98,1354.48 3135.85,1354.29 3135.74,1354.11L3251.97,1260.75L3168.96,1355.35C3167.62,1354.55 3165.94,1354.38 3164.41,1355.07C3161.92,1356.18 3160.81,1359.1 3161.92,1361.58C3162.1,1361.97 3162.33,1362.3 3162.57,1362.62L3089.1,1446.35C3088.46,1445.75 3087.76,1445.21 3087.03,1444.73ZM3020.28,1516.02C3014.98,1511.15 3007.02,1509.61 2999.97,1512.77C2995.24,1514.89 2991.82,1518.71 2990.11,1523.17L2906.28,1493.22C2906.64,1492 2906.75,1490.71 2906.6,1489.41L3063.61,1461.45C3063.82,1462.27 3064.09,1463.09 3064.45,1463.89C3065.31,1465.8 3066.51,1467.45 3067.94,1468.8L3020.28,1516.02ZM3071.91,1471.5L3038.45,1535.75C3037.28,1535.31 3035.95,1535.32 3034.73,1535.87C3033.61,1536.37 3032.79,1537.24 3032.31,1538.26L3025.04,1535.66C3026.59,1531.34 3026.57,1526.46 3024.56,1521.97C3023.66,1519.98 3022.44,1518.24 3021,1516.76L3068.72,1469.47C3069.7,1470.28 3070.77,1470.96 3071.91,1471.5ZM3632.8,1745.79C3630.88,1746.66 3629.42,1748.1 3628.47,1749.8L3092.37,1464.39C3092.93,1463.24 3093.33,1462.03 3093.6,1460.78L3715.79,1556.01C3715.76,1556.87 3715.89,1557.74 3716.27,1558.58C3716.67,1559.47 3717.29,1560.2 3718.02,1560.76L3640.18,1745.67C3637.89,1744.74 3635.24,1744.7 3632.8,1745.79ZM3319.41,1839.85C3319.28,1839.53 3319.12,1839.22 3318.91,1838.92C3317.38,1836.7 3314.33,1836.14 3312.11,1837.68C3311.88,1837.84 3311.69,1838.02 3311.49,1838.21L3156.11,1711.86C3160.34,1706.6 3161.57,1699.26 3158.66,1692.76C3157.74,1690.72 3156.49,1688.95 3155,1687.44L3213.65,1626.34C3215.06,1627.58 3217.1,1627.97 3218.92,1627.16C3220.1,1626.63 3220.95,1625.7 3221.42,1624.6L3627.47,1752.43C3627.16,1753.86 3627.19,1755.36 3627.59,1756.83L3319.41,1839.85ZM3497.86,1863.35C3496.22,1861.71 3493.6,1861.41 3491.63,1862.78C3490.38,1863.65 3489.68,1864.99 3489.56,1866.4L3362.54,1875.59C3362.42,1874.92 3362.17,1874.26 3361.76,1873.67C3360.22,1871.45 3357.17,1870.89 3354.95,1872.43C3354.71,1872.6 3354.49,1872.79 3354.28,1873L3319.02,1844.33C3319.68,1843.29 3319.91,1842.04 3319.7,1840.84L3627.91,1757.81C3627.97,1757.95 3627.99,1758.11 3628.06,1758.25C3628.38,1758.97 3628.79,1759.59 3629.25,1760.18L3497.86,1863.35ZM3484.82,1949.05C3479.9,1941.66 3470.15,1938.69 3461.69,1942.47C3458.49,1943.91 3455.89,1946.15 3454.01,1948.83L3422.46,1927.85C3423.08,1926.61 3423.18,1925.12 3422.6,1923.75L3490.87,1870.14C3492.5,1871.87 3495.18,1872.21 3497.19,1870.82C3498.58,1869.86 3499.32,1868.3 3499.3,1866.73L3638.67,1856.65C3638.74,1856.92 3638.82,1857.19 3638.93,1857.46L3638.96,1857.5L3484.82,1949.05ZM3620.63,2056.57C3619.99,2056.86 3619.44,2057.26 3619,2057.75L3536.38,2003.51C3537,2002.24 3537.1,2000.71 3536.47,1999.32C3535.36,1996.84 3532.45,1995.73 3529.96,1996.84C3529.27,1997.15 3528.69,1997.62 3528.23,1998.16L3484.82,1969.3C3488.16,1964.19 3488.94,1957.59 3486.29,1951.68C3486.01,1951.06 3485.71,1950.48 3485.37,1949.91L3639.48,1858.38C3640.25,1859.41 3641.37,1860.09 3642.6,1860.3L3622.38,2056.16C3621.79,2056.19 3621.2,2056.32 3620.63,2056.57ZM3617.63,2102.14C3614.58,2101.89 3611.42,2102.38 3608.43,2103.72C3607.59,2104.1 3606.8,2104.55 3606.04,2105.03L3539.19,2006.59L3618.39,2058.59C3617.63,2059.91 3617.47,2061.57 3618.14,2063.08C3618.78,2064.49 3620,2065.44 3621.38,2065.81L3617.63,2102.14ZM3616.85,2128.93C3617.71,2128.84 3618.58,2128.65 3619.43,2128.27C3621,2127.56 3622.25,2126.45 3623.12,2125.11L3631.13,2129.1C3629.33,2132.2 3626.59,2134.81 3623.06,2136.39C3621.09,2137.27 3619.04,2137.74 3617.01,2137.88L3616.85,2128.93ZM3607.87,2123.19C3607.97,2123.48 3608.04,2123.77 3608.16,2124.06C3609.55,2127.16 3612.6,2128.98 3615.82,2129.01L3615.99,2137.93C3609.26,2137.99 3602.83,2134.2 3599.94,2127.75C3599.56,2126.9 3599.27,2126.03 3599.04,2125.15L3607.87,2123.19ZM3618.53,2103.37C3624.28,2104.16 3629.49,2107.75 3632.01,2113.38C3634.21,2118.29 3633.9,2123.7 3631.63,2128.21L3623.6,2124.2C3624.67,2122.02 3624.84,2119.43 3623.78,2117.06C3622.61,2114.45 3620.25,2112.74 3617.62,2112.25L3618.53,2103.37ZM3616.6,2112.15C3615.25,2112.06 3613.85,2112.26 3612.52,2112.85C3612.22,2112.98 3611.96,2113.17 3611.69,2113.33L3606.67,2105.94C3607.37,2105.5 3608.1,2105.08 3608.88,2104.73C3611.69,2103.48 3614.66,2103.01 3617.52,2103.24L3616.6,2112.15ZM3605.8,2106.5L3610.82,2113.89C3608.25,2115.84 3607,2119.06 3607.6,2122.2L3598.79,2124.15C3597.43,2117.48 3600.18,2110.52 3605.8,2106.5ZM3486.33,2148.46C3485.21,2145.98 3482.3,2144.87 3479.81,2145.98C3479.14,2146.28 3478.57,2146.73 3478.12,2147.25L3376.18,2074.34C3377.04,2072.77 3377.02,2070.79 3375.93,2069.21C3375.34,2068.36 3374.53,2067.76 3373.62,2067.42L3392.36,2008.94C3393.68,2009.28 3395.15,2009.09 3396.36,2008.25C3398.44,2006.81 3399.03,2004.06 3397.85,2001.89L3453.27,1968.98C3458.04,1976.81 3468.1,1980.04 3476.79,1976.15C3479.86,1974.77 3482.38,1972.66 3484.24,1970.13L3527.67,1998.98C3526.96,2000.29 3526.83,2001.89 3527.48,2003.35C3528.59,2005.84 3531.51,2006.95 3533.99,2005.84C3534.74,2005.5 3535.34,2004.99 3535.82,2004.39L3536.98,2005.16L3605.18,2105.58C3599.18,2109.86 3596.25,2117.28 3597.71,2124.4L3486.54,2149.11C3486.48,2148.89 3486.42,2148.67 3486.33,2148.46ZM3347.13,2159.62C3346.65,2158.54 3345.82,2157.74 3344.85,2157.25L3370.65,2076.69C3371.99,2077.05 3373.46,2076.86 3374.69,2076.01C3375.04,2075.77 3375.33,2075.49 3375.59,2075.18L3477.53,2148.1C3476.81,2149.4 3476.67,2151.02 3477.33,2152.49C3477.65,2153.19 3478.12,2153.77 3478.67,2154.24L3417.06,2245.73C3415.93,2245.35 3414.66,2245.37 3413.49,2245.89C3413.22,2246.01 3412.98,2246.16 3412.75,2246.32L3346.09,2165.13C3347.51,2163.72 3348,2161.54 3347.13,2159.62ZM2903.65,2498.91L2724.84,2149.38C2726.77,2148.17 2727.61,2145.79 2726.87,2143.63L2876.21,2085.21L2876.22,2085.23C2876.78,2086.47 2877.8,2087.38 2878.99,2087.82L2854.4,2192.27C2852.6,2191.94 2850.69,2192.14 2848.89,2192.94C2844.14,2195.07 2842.02,2200.64 2844.14,2205.4C2845.87,2209.25 2849.87,2211.34 2853.86,2210.86L2904.4,2498.67C2904.15,2498.73 2903.9,2498.81 2903.65,2498.91ZM2635.64,2179.31L2717.72,2147.2L2717.73,2147.24C2718.8,2149.62 2721.51,2150.72 2723.92,2149.83L2902.75,2499.39C2902.21,2499.72 2901.74,2500.13 2901.34,2500.59L2630.45,2199.34C2636,2194.39 2638.21,2186.48 2635.64,2179.31ZM2634.6,2179.72C2637,2186.45 2634.92,2193.87 2629.71,2198.52L2623.73,2191.87C2626.2,2189.67 2627.21,2186.22 2626.18,2183.01L2634.6,2179.72ZM2628.11,2171.31C2630.65,2173.04 2632.77,2175.45 2634.11,2178.45C2634.16,2178.55 2634.19,2178.65 2634.23,2178.76L2625.83,2182.04C2625.21,2180.68 2624.24,2179.59 2623.09,2178.77L2628.11,2171.31ZM2622.23,2178.23C2619.97,2177 2617.17,2176.78 2614.62,2177.92C2614.27,2178.07 2613.96,2178.29 2613.64,2178.48L2608.9,2170.93C2609.56,2170.52 2610.25,2170.13 2610.99,2169.8C2616.46,2167.35 2622.51,2167.9 2627.26,2170.75L2622.23,2178.23ZM2690.65,2084.8L2719.48,2141.16C2717.82,2142.27 2717.01,2144.28 2717.41,2146.22L2635.26,2178.35C2635.21,2178.23 2635.18,2178.11 2635.12,2177.99C2633.69,2174.8 2631.44,2172.23 2628.73,2170.39L2686.53,2084.41C2687.74,2085.12 2689.24,2085.29 2690.65,2084.8ZM2741.53,2002.58C2742.88,2003.45 2744.62,2003.64 2746.2,2002.94C2747.67,2002.28 2748.64,2000.99 2748.97,1999.53L2878.92,2011.28C2878.74,2014.14 2879.21,2017.08 2880.46,2019.87C2882.82,2025.12 2887.37,2028.72 2892.58,2030.09L2881.22,2078.33C2880.39,2078.24 2879.52,2078.34 2878.71,2078.71C2876.55,2079.68 2875.43,2082 2875.9,2084.22L2726.43,2142.69C2725.19,2140.64 2722.64,2139.76 2720.39,2140.67L2691.58,2084.36C2693.67,2083.09 2694.55,2080.45 2693.53,2078.16C2693.18,2077.37 2692.63,2076.74 2692,2076.26L2741.53,2002.58ZM2230.73,1751.57L2239.25,1691.06C2240.28,1691.1 2241.33,1690.84 2242.24,1690.21C2243.42,1689.4 2244.11,1688.17 2244.29,1686.87L2294.88,1689.2C2294.92,1690.09 2295.19,1690.98 2295.73,1691.77L2295.89,1691.95L2233.18,1752.78C2232.49,1752.15 2231.64,1751.73 2230.73,1751.57ZM2195.94,1788.9C2194.29,1787.48 2191.84,1787.27 2189.97,1788.56C2189.3,1789.03 2188.8,1789.63 2188.45,1790.31L2100.93,1756.99C2102.22,1752.86 2102.09,1748.28 2100.2,1744.04C2096.19,1735.1 2085.81,1730.97 2076.65,1734.44L2053.55,1681.77C2054.49,1681.25 2055.19,1680.47 2055.62,1679.55L2225.21,1754.91C2224.84,1756.03 2224.86,1757.28 2225.38,1758.44C2225.57,1758.88 2225.84,1759.26 2226.14,1759.61L2195.94,1788.9ZM2217.89,1797.36C2216.7,1797.17 2215.44,1797.42 2214.37,1798.15C2213.79,1798.56 2213.33,1799.07 2212.98,1799.65L2197.48,1793.75C2197.8,1792.44 2197.6,1791 2196.77,1789.8L2196.64,1789.65L2226.89,1760.32C2227.15,1760.52 2227.43,1760.69 2227.73,1760.83L2217.89,1797.36ZM2087.4,1758.94C2089.22,1757.88 2090.54,1756.25 2091.2,1754.38L2099.57,1757.57C2098.07,1761.58 2095.1,1765.05 2090.99,1767.13L2087.4,1758.94ZM2079.86,1759.51C2081.93,1760.34 2084.32,1760.39 2086.53,1759.42L2090.1,1767.57C2085.45,1769.6 2080.41,1769.47 2076.09,1767.63L2079.86,1759.51ZM2075.48,1748.12C2074.45,1750.28 2074.29,1752.84 2075.34,1755.18C2076.11,1756.9 2077.4,1758.21 2078.94,1759.06L2075.15,1767.21C2071.7,1765.49 2068.8,1762.63 2067.12,1758.87C2065.01,1754.18 2065.22,1749.04 2067.21,1744.66L2075.48,1748.12ZM2077.1,1735.45C2085.7,1732.22 2095.43,1736.11 2099.19,1744.5C2100.96,1748.45 2101.09,1752.73 2099.9,1756.59L2091.48,1753.39C2091.84,1751.69 2091.72,1749.88 2090.96,1748.19C2089.2,1744.25 2084.76,1742.38 2080.69,1743.64L2077.1,1735.45ZM2076.06,1735.86L2076.18,1735.81L2079.75,1743.95L2079.7,1743.97C2078.1,1744.69 2076.83,1745.83 2075.96,1747.2L2067.66,1743.73C2069.44,1740.37 2072.31,1737.54 2076.06,1735.86ZM2235.44,1688.97C2236.14,1689.98 2237.15,1690.63 2238.25,1690.91L2229.7,1751.5C2229.09,1751.52 2228.46,1751.66 2227.86,1751.93C2226.88,1752.37 2226.12,1753.1 2225.62,1753.97L2055.96,1678.58C2055.99,1678.44 2056.03,1678.31 2056.04,1678.17L2234.59,1686.42C2234.63,1687.3 2234.9,1688.19 2235.44,1688.97ZM2252.6,1610.47C2253.4,1610.11 2254.04,1609.55 2254.53,1608.88L2317.64,1648.21C2314.64,1653.21 2314.03,1659.51 2316.57,1665.19C2317.26,1666.73 2318.15,1668.11 2319.18,1669.36L2302.83,1685.22C2301.19,1683.87 2298.81,1683.7 2296.97,1684.96C2295.84,1685.75 2295.15,1686.92 2294.94,1688.18L2244.32,1685.84C2244.26,1684.99 2244,1684.16 2243.48,1683.41C2242.77,1682.38 2241.73,1681.73 2240.6,1681.45L2250.54,1610.89C2251.23,1610.89 2251.93,1610.77 2252.6,1610.47ZM2287.88,1543.07C2288.94,1543.48 2290.14,1543.49 2291.28,1543.09L2326.82,1640.42C2326.57,1640.52 2326.32,1640.6 2326.07,1640.71C2322.75,1642.2 2320.09,1644.54 2318.2,1647.34L2255.05,1608C2255.61,1606.76 2255.68,1605.3 2255.08,1603.96C2254.73,1603.18 2254.19,1602.55 2253.55,1602.07L2287.88,1543.07ZM2229.79,1558.7L2285.14,1540.49C2285.55,1541.39 2286.19,1542.1 2286.96,1542.6L2252.68,1601.53C2251.45,1600.96 2250.01,1600.88 2248.67,1601.44L2227.78,1563.78L2227.79,1563.77C2229.48,1562.61 2230.2,1560.58 2229.79,1558.7ZM2066.17,1274.44L2133.85,1396.5C2132.02,1397.84 2131.31,1400.32 2132.27,1402.47C2132.46,1402.9 2132.73,1403.27 2133.01,1403.61L2059.85,1483.26C2059.24,1482.82 2058.55,1482.5 2057.81,1482.37L2064.55,1274.8C2065.09,1274.77 2065.64,1274.65 2066.17,1274.44ZM2202.03,1324.46C2202.42,1325.34 2202.97,1326.1 2203.58,1326.8L2139.6,1396.44C2138.22,1395.48 2136.4,1395.22 2134.76,1395.96L2134.73,1395.97L2067.08,1273.96C2067.67,1273.56 2068.17,1273.05 2068.53,1272.47L2201.7,1317.7C2201,1319.84 2201.03,1322.23 2202.03,1324.46ZM2204.35,1102.79C2204.45,1102.75 2204.53,1102.69 2204.61,1102.64L2284.32,1225.5C2282.32,1227.09 2281.85,1229.96 2283.32,1232.09C2283.48,1232.33 2283.67,1232.53 2283.86,1232.73L2216.26,1313.06C2214.95,1312.1 2213.42,1311.49 2211.82,1311.28L2203.06,1103.15C2203.49,1103.08 2203.93,1102.98 2204.35,1102.79ZM2427.97,867.133C2428.07,867.35 2428.21,867.531 2428.32,867.737L2420.62,872.498C2420.31,871.961 2420.01,871.4 2419.75,870.818C2419.15,869.487 2418.76,868.119 2418.52,866.741L2427.42,865.396C2427.54,865.981 2427.72,866.564 2427.97,867.133ZM2434.59,855.304C2433.83,855.411 2433.07,855.592 2432.33,855.923C2430.22,856.869 2428.68,858.556 2427.87,860.531L2419.38,857.718C2420.97,853.472 2424.21,849.82 2428.7,847.81C2430.36,847.066 2432.07,846.614 2433.78,846.407L2434.59,855.304ZM2438.2,855.527C2437.33,855.28 2436.43,855.18 2435.52,855.208L2434.71,846.32C2436.95,846.169 2439.18,846.439 2441.27,847.104L2438.2,855.527ZM2534.52,598.896L2550.44,720.448C2549.85,720.584 2549.28,720.821 2548.75,721.186C2546.53,722.722 2545.98,725.767 2547.51,727.988C2547.68,728.226 2547.86,728.435 2548.06,728.633L2447.39,849.077C2445.94,847.949 2444.34,847.042 2442.63,846.389L2533.06,598.724C2533.53,598.854 2534.03,598.906 2534.52,598.896ZM2771.82,1174.36L2749.87,1109.77C2750.14,1109.65 2750.4,1109.51 2750.65,1109.34C2752.87,1107.81 2753.42,1104.76 2751.89,1102.54C2751.67,1102.22 2751.41,1101.95 2751.13,1101.7L2815.1,1015.36C2815.41,1015.55 2815.73,1015.69 2816.06,1015.8L2780.53,1174.03C2777.7,1173.47 2774.72,1173.55 2771.82,1174.36ZM2778.33,1183.82C2777.26,1183.63 2776.15,1183.65 2775.05,1183.88L2772.17,1175.41C2774.88,1174.66 2777.65,1174.59 2780.29,1175.11L2778.33,1183.82ZM2780.46,1209.09L2778.84,1200.3C2779.29,1200.18 2779.74,1200.05 2780.18,1199.85C2784.49,1197.92 2786.45,1192.9 2784.54,1188.64C2783.51,1186.35 2781.57,1184.78 2779.33,1184.08L2781.29,1175.33C2786.22,1176.61 2790.54,1180 2792.76,1184.96C2796.67,1193.69 2792.66,1204.01 2783.82,1207.97C2782.71,1208.46 2781.59,1208.83 2780.46,1209.09ZM2292.06,1228.08L2330.96,1214.81C2331.48,1216.22 2332.16,1217.59 2333.06,1218.88C2333.24,1219.15 2333.45,1219.4 2333.65,1219.66L2217.54,1314.21C2217.36,1314.02 2217.17,1313.83 2216.98,1313.65L2284.58,1233.33C2286.2,1234.45 2288.41,1234.52 2290.13,1233.33C2291.86,1232.13 2292.56,1230.02 2292.06,1228.08ZM2356.37,1209.82C2356.72,1207.75 2356.31,1205.55 2355.02,1203.7C2352.42,1199.93 2347.26,1198.99 2343.5,1201.59C2342.89,1202.02 2342.36,1202.52 2341.9,1203.06L2334.54,1197.5C2335.58,1196.19 2336.82,1195.01 2338.26,1194.01C2346.2,1188.53 2357.11,1190.52 2362.6,1198.45C2365.4,1202.5 2366.24,1207.32 2365.35,1211.81L2356.37,1209.82ZM2342.11,1213.98C2344.85,1217 2349.47,1217.6 2352.92,1215.21C2354.55,1214.09 2355.64,1212.48 2356.16,1210.72L2365.14,1212.72C2364.14,1216.67 2361.77,1220.29 2358.16,1222.79C2350.74,1227.92 2340.71,1226.51 2334.95,1219.81L2342.11,1213.98ZM2340.55,1211.53C2340.78,1212.08 2341.06,1212.61 2341.41,1213.11L2341.52,1213.26L2334.38,1219.07C2334.19,1218.83 2334,1218.6 2333.83,1218.35C2332.98,1217.13 2332.34,1215.84 2331.84,1214.51L2340.55,1211.53ZM2340.25,1210.65L2331.52,1213.63C2329.89,1208.41 2330.83,1202.69 2333.99,1198.25L2341.34,1203.8C2340,1205.81 2339.59,1208.32 2340.25,1210.65ZM2206.7,1100.53L2673.75,1280.21L2366.26,1212.01C2367.21,1207.28 2366.32,1202.19 2363.37,1197.92C2357.59,1189.56 2346.09,1187.47 2337.73,1193.25C2336.21,1194.3 2334.89,1195.55 2333.79,1196.94L2206.51,1100.85C2206.57,1100.74 2206.65,1100.63 2206.7,1100.53ZM2443.33,880.471L2443.47,880.401L2513.92,1024.91C2513.35,1025.19 2512.85,1025.57 2512.45,1026.02L2368.08,938.723C2368.82,937.192 2368.75,935.33 2367.72,933.833C2367.57,933.626 2367.4,933.446 2367.23,933.267L2423,877.209C2428.3,882.094 2436.28,883.631 2443.33,880.471ZM2430.15,870.025C2432.53,872.08 2435.98,872.722 2439.08,871.404L2442.98,879.404L2442.87,879.458C2436.25,882.425 2428.77,880.994 2423.79,876.42L2430.15,870.025ZM2429.43,869.294L2423.06,875.69C2422.38,874.979 2421.75,874.201 2421.18,873.364L2428.84,868.627C2429.02,868.873 2429.23,869.073 2429.43,869.294ZM2440.9,856.84C2440.36,856.45 2439.79,856.116 2439.17,855.858L2442.25,847.434C2443.84,848.042 2445.33,848.883 2446.68,849.928L2440.9,856.84ZM2451.82,856.448C2454.65,862.767 2453.31,869.913 2449.01,874.881L2442.57,868.655C2444.37,866.264 2444.89,863.033 2443.6,860.135C2443.12,859.071 2442.44,858.167 2441.63,857.429L2447.4,850.529C2449.23,852.115 2450.77,854.097 2451.82,856.448ZM2773.27,1184.43C2772.37,1184.83 2771.6,1185.4 2770.92,1186.04L2764.5,1179.83C2765.96,1178.41 2767.67,1177.2 2769.64,1176.32C2770.18,1176.07 2770.73,1175.87 2771.28,1175.69L2774.15,1184.12C2773.85,1184.21 2773.56,1184.3 2773.27,1184.43ZM2764.04,1204.24C2762.69,1202.84 2761.53,1201.2 2760.69,1199.33C2759.63,1196.97 2759.18,1194.49 2759.22,1192.06L2768.21,1192.56C2768.25,1193.6 2768.47,1194.64 2768.92,1195.64C2769.32,1196.54 2769.88,1197.3 2770.53,1197.98L2764.04,1204.24ZM2771.28,1198.67C2773.1,1200.15 2775.46,1200.82 2777.83,1200.49L2779.44,1209.26C2774.1,1210.15 2768.68,1208.53 2764.78,1204.97L2771.28,1198.67ZM2681.58,1278.45L2641.02,1189.22C2641.13,1189.15 2641.26,1189.1 2641.37,1189.02C2642.56,1188.19 2643.26,1186.93 2643.42,1185.59L2666.02,1186.85C2666.01,1187.82 2666.29,1188.8 2666.88,1189.66C2668.41,1191.88 2671.46,1192.44 2673.68,1190.9C2674.9,1190.06 2675.6,1188.76 2675.74,1187.39L2758.11,1191.99C2758.06,1194.6 2758.55,1197.25 2759.68,1199.78C2760.57,1201.78 2761.8,1203.52 2763.25,1205.01L2686.21,1279.44C2684.96,1278.36 2683.22,1277.95 2681.58,1278.45ZM2405.46,1141.77C2405.33,1142.9 2405.57,1144.08 2406.27,1145.1C2407.81,1147.32 2410.85,1147.87 2413.07,1146.34C2414.01,1145.69 2414.62,1144.78 2414.94,1143.78L2589.34,1180.7C2589,1182.52 2589.17,1184.45 2589.99,1186.27C2592.12,1191.02 2597.7,1193.15 2602.45,1191.02C2603.15,1190.7 2603.79,1190.3 2604.37,1189.85L2679.71,1279.52C2679.25,1279.94 2678.88,1280.43 2678.61,1280.97L2208.21,1100.01L2405.46,1141.77ZM2437.62,1046.92L2511.4,1030.67C2511.46,1030.89 2511.52,1031.11 2511.61,1031.33C2512.71,1033.76 2515.52,1034.86 2517.97,1033.86L2593.61,1174.46C2591.6,1175.72 2590.2,1177.64 2589.56,1179.79L2415.13,1142.86C2415.26,1141.73 2415.02,1140.55 2414.32,1139.53C2413.7,1138.64 2412.83,1138.03 2411.87,1137.7L2432.12,1052.34C2433.29,1052.5 2434.52,1052.26 2435.57,1051.53C2437.12,1050.46 2437.83,1048.66 2437.62,1046.92ZM2760.54,1185.67C2761.31,1183.81 2762.4,1182.08 2763.78,1180.56L2770.21,1186.78C2769.26,1187.91 2768.61,1189.25 2768.33,1190.68L2760.54,1185.67ZM2760.17,1186.66L2767.72,1191.5L2759.25,1191.03C2759.37,1189.53 2759.68,1188.07 2760.17,1186.66ZM2674.92,1184.1C2673.39,1181.88 2670.34,1181.32 2668.12,1182.86L2667.88,1183.07L2521.08,1033.12L2759.21,1186.04C2758.64,1187.62 2758.27,1189.28 2758.14,1190.96L2675.74,1186.36C2675.66,1185.58 2675.4,1184.8 2674.92,1184.1ZM2642.61,1182.22C2641.07,1180 2638.03,1179.44 2635.8,1180.98C2633.58,1182.51 2633.03,1185.56 2634.57,1187.78C2635.84,1189.62 2638.15,1190.3 2640.17,1189.6L2680.72,1278.81C2680.63,1278.86 2680.54,1278.91 2680.45,1278.96L2605.07,1189.23C2606.65,1187.72 2607.65,1185.71 2607.92,1183.57L2608,1182.55C2608.02,1181.21 2607.78,1179.86 2607.2,1178.56C2605.07,1173.81 2599.49,1171.68 2594.74,1173.81L2594.5,1173.95L2518.88,1033.37C2519.11,1033.21 2519.32,1033.04 2519.51,1032.84L2667.2,1183.71C2666.67,1184.33 2666.31,1185.06 2666.14,1185.83L2643.44,1184.56C2643.36,1183.75 2643.11,1182.94 2642.61,1182.22ZM2449.12,876.416L2762.98,1179.79C2761.55,1181.36 2760.42,1183.15 2759.6,1185.07L2520.49,1031.51C2521.13,1030.24 2521.24,1028.7 2520.61,1027.3C2519.6,1025.04 2517.11,1023.94 2514.8,1024.58L2444.3,879.979C2446.13,879.028 2447.74,877.825 2449.12,876.416ZM2441.92,869.458L2448.32,875.647C2447.03,876.964 2445.52,878.092 2443.81,878.982L2439.92,870.999C2440.67,870.576 2441.34,870.053 2441.92,869.458ZM2367.6,939.522L2511.89,1026.77C2511.7,1027.09 2511.56,1027.43 2511.44,1027.79L2366.76,1004.46C2366.83,1003.4 2366.58,1002.31 2365.93,1001.37C2365.1,1000.17 2363.83,999.48 2362.5,999.315L2364.03,941.473C2364.88,941.416 2365.73,941.155 2366.48,940.638C2366.93,940.325 2367.29,939.938 2367.6,939.522ZM2436.81,1044.73C2435.28,1042.51 2432.23,1041.95 2430.01,1043.49C2428.46,1044.56 2427.75,1046.35 2427.96,1048.1L2270.99,1082.68C2270.85,1082.24 2270.67,1081.81 2270.39,1081.4L2358.47,1007.63C2360.12,1009.25 2362.72,1009.53 2364.68,1008.17C2365.69,1007.48 2366.33,1006.47 2366.61,1005.38L2511.24,1028.7C2511.2,1029.05 2511.19,1029.4 2511.22,1029.75L2437.42,1046.01C2437.28,1045.57 2437.09,1045.13 2436.81,1044.73ZM2554.31,729.229L2554.49,729.076L2813.97,1007.95C2812.51,1009.59 2812.29,1012.07 2813.6,1013.96C2813.82,1014.28 2814.08,1014.56 2814.35,1014.81L2750.38,1101.14C2748.79,1100.18 2746.72,1100.17 2745.08,1101.3C2742.87,1102.84 2742.31,1105.88 2743.84,1108.1C2745.02,1109.81 2747.09,1110.52 2748.99,1110.07L2770.93,1174.64C2770.34,1174.83 2769.76,1175.05 2769.18,1175.31C2767.08,1176.24 2765.26,1177.54 2763.7,1179.06L2449.81,875.654C2454.42,870.367 2455.86,862.739 2452.83,855.993C2451.71,853.484 2450.07,851.37 2448.11,849.678L2548.78,729.231C2550.4,730.341 2552.6,730.415 2554.31,729.229ZM2206.83,1096.28C2206.65,1095.87 2206.41,1095.52 2206.14,1095.2L2360.36,940.182C2361.13,940.902 2362.09,941.324 2363.1,941.448L2361.56,999.289C2360.72,999.349 2359.87,999.609 2359.12,1000.13C2356.91,1001.66 2356.35,1004.7 2357.87,1006.92L2269.79,1080.69C2268.15,1079.07 2265.54,1078.79 2263.58,1080.15C2262.03,1081.22 2261.31,1083.02 2261.53,1084.77L2207.01,1096.78C2206.95,1096.61 2206.91,1096.44 2206.83,1096.28ZM2207.21,1097.69L2261.73,1085.68C2261.88,1086.12 2262.06,1086.55 2262.34,1086.95C2263.87,1089.17 2266.92,1089.73 2269.14,1088.19C2270.68,1087.13 2271.4,1085.33 2271.19,1083.59L2428.16,1049.01C2428.3,1049.45 2428.49,1049.89 2428.77,1050.29C2429.39,1051.19 2430.26,1051.8 2431.22,1052.12L2410.96,1137.49C2409.79,1137.33 2408.56,1137.57 2407.51,1138.29C2406.58,1138.94 2405.96,1139.85 2405.65,1140.86L2207.21,1098.84C2207.25,1098.46 2207.25,1098.08 2207.21,1097.69ZM2205.39,1102.13C2205.6,1101.97 2205.78,1101.79 2205.96,1101.6L2333.25,1197.69C2329.9,1202.37 2328.9,1208.42 2330.64,1213.93L2291.74,1227.21C2291.63,1226.98 2291.52,1226.75 2291.37,1226.53C2289.95,1224.48 2287.25,1223.88 2285.1,1225L2205.39,1102.13ZM2213.33,1329.59L2287.91,1533.88C2287.82,1533.91 2287.72,1533.93 2287.62,1533.97C2285.46,1534.94 2284.34,1537.28 2284.82,1539.51L2229.46,1557.73C2229.34,1557.47 2229.2,1557.21 2229.04,1556.96C2227.68,1555.01 2225.16,1554.35 2223.06,1555.27L2139.49,1404.55C2141.46,1403.24 2142.27,1400.67 2141.27,1398.44C2141.04,1397.94 2140.73,1397.5 2140.37,1397.12L2204.28,1327.56C2206.68,1329.75 2210.1,1330.56 2213.33,1329.59ZM2321.29,1416.58L2290.73,1533.68C2290.14,1533.55 2289.53,1533.52 2288.92,1533.62L2214.3,1329.26L2214.49,1329.2C2216.03,1328.51 2217.26,1327.44 2218.19,1326.17L2318.92,1409.26C2318.02,1410.62 2317.81,1412.39 2318.52,1413.99C2319.08,1415.24 2320.1,1416.14 2321.29,1416.58ZM2561.15,1372.97C2561.69,1373.76 2562.43,1374.32 2563.25,1374.67L2539.69,1448.66C2537.69,1448.15 2535.52,1448.28 2533.49,1449.18C2530.79,1450.4 2528.98,1452.73 2528.28,1455.39L2327.93,1412.18C2327.94,1411.96 2327.93,1411.73 2327.91,1411.5L2560.4,1371.26C2560.54,1371.85 2560.78,1372.44 2561.15,1372.97ZM2604.29,1474.21L2546.64,1459.32C2546.93,1457.56 2546.73,1455.69 2545.95,1453.93C2544.86,1451.51 2542.88,1449.78 2540.58,1448.94L2564.14,1374.96C2564.95,1375.13 2565.79,1375.09 2566.59,1374.84L2606.64,1471.61C2605.53,1472.18 2604.72,1473.11 2604.29,1474.21ZM2802.15,1344.37L2810.33,1500.75C2809.89,1500.81 2809.46,1500.92 2809.04,1501.1C2806.56,1502.22 2805.45,1505.13 2806.56,1507.62C2807.35,1509.37 2809.04,1510.42 2810.84,1510.5L2813.94,1569.84C2813.27,1569.96 2812.63,1570.21 2812.04,1570.62C2811.25,1571.16 2810.69,1571.9 2810.34,1572.71L2642.55,1507.93C2642.84,1506.87 2642.79,1505.72 2642.31,1504.64C2642.1,1504.17 2641.81,1503.77 2641.49,1503.4L2791.33,1340.18C2794.26,1342.92 2798.14,1344.44 2802.15,1344.37ZM2905.88,1486.69C2903.75,1481.94 2898.18,1479.82 2893.43,1481.95C2893.26,1482.02 2893.12,1482.13 2892.96,1482.22L2810.13,1341.94C2812.52,1340.42 2814.39,1338.32 2815.61,1335.91L3064.32,1451.62C3063.17,1454.36 3062.81,1457.42 3063.38,1460.44L2906.45,1488.39C2906.32,1487.82 2906.13,1487.25 2905.88,1486.69ZM2815.87,1504.53C2815.8,1504.21 2815.7,1503.89 2815.56,1503.59C2814.78,1501.85 2813.13,1500.81 2811.35,1500.7L2803.18,1344.3C2804.86,1344.15 2806.54,1343.74 2808.16,1343.02C2808.54,1342.85 2808.89,1342.66 2809.25,1342.46L2892.07,1482.73C2889.09,1484.71 2887.54,1488.2 2887.97,1491.68L2815.87,1504.53ZM2868.26,1574.74C2864.14,1573.55 2859.59,1573.74 2855.35,1575.64C2850.55,1577.79 2847.1,1581.71 2845.42,1586.26L2819.43,1576.22C2819.91,1574.81 2819.76,1573.19 2818.84,1571.86C2817.92,1570.53 2816.46,1569.81 2814.96,1569.77L2811.86,1510.44C2812.27,1510.38 2812.68,1510.28 2813.08,1510.1C2814.92,1509.27 2816,1507.45 2815.99,1505.55L2888.12,1492.7C2888.25,1493.28 2888.43,1493.85 2888.68,1494.4C2889.72,1496.73 2891.59,1498.41 2893.78,1499.29L2868.26,1574.74ZM2901.14,1499.15C2901.31,1499.08 2901.45,1498.97 2901.61,1498.89L2949.53,1580.04C2947.62,1581.37 2946.85,1583.9 2947.84,1586.09C2948.01,1586.49 2948.25,1586.83 2948.5,1587.15L2923.56,1611.86C2921.92,1610.51 2919.52,1610.33 2917.68,1611.6C2916.95,1612.11 2916.42,1612.79 2916.07,1613.53L2880,1599.61C2881.97,1595.03 2882.13,1589.71 2879.94,1584.84C2877.81,1580.07 2873.85,1576.67 2869.24,1575.06L2894.76,1499.59C2896.81,1500.16 2899.05,1500.09 2901.14,1499.15ZM2917.41,1619.41C2919.05,1620.74 2921.42,1620.91 2923.25,1619.64C2923.89,1619.2 2924.37,1618.62 2924.72,1617.98L2970.61,1635.69C2969.64,1638.96 2969.76,1642.56 2971.15,1645.93L2826.82,1710.78C2826.63,1710.43 2826.41,1710.11 2826.16,1709.83L2917.41,1619.41ZM2970.92,1634.72L2925.12,1617.03C2925.54,1615.66 2925.37,1614.12 2924.49,1612.84L2924.28,1612.6L2949.23,1587.88C2950.63,1589.02 2952.59,1589.37 2954.35,1588.58L2954.51,1588.48L2977.24,1626.97C2974.26,1628.83 2972.08,1631.58 2970.92,1634.72ZM2857.37,1610.16C2861.53,1611.41 2866.15,1611.24 2870.44,1609.31C2874.57,1607.46 2877.71,1604.3 2879.58,1600.55L2915.72,1614.5C2915.42,1615.8 2915.62,1617.22 2916.44,1618.4C2916.51,1618.51 2916.6,1618.59 2916.68,1618.68L2825.41,1709.12C2825.02,1708.83 2824.59,1708.58 2824.13,1708.42L2857.37,1610.16ZM2845.85,1600.11C2847.96,1604.83 2851.85,1608.21 2856.39,1609.85L2823.13,1708.18C2822.82,1708.14 2822.51,1708.12 2822.19,1708.14L2815.47,1579.47C2816.21,1579.37 2816.94,1579.12 2817.6,1578.66C2818.19,1578.25 2818.65,1577.74 2819,1577.16L2845.09,1587.23C2843.82,1591.35 2843.96,1595.91 2845.85,1600.11ZM2865.03,1584.29C2863.23,1583.85 2861.28,1583.95 2859.44,1584.77C2857.15,1585.79 2855.56,1587.7 2854.82,1589.89L2846.46,1586.66C2848.04,1582.37 2851.28,1578.68 2855.81,1576.65C2859.77,1574.87 2864.04,1574.69 2867.91,1575.79L2865.03,1584.29ZM2870.6,1595.98C2871.61,1593.83 2871.75,1591.3 2870.71,1588.97C2869.76,1586.87 2868.04,1585.34 2866.02,1584.57L2868.89,1576.1C2873.22,1577.63 2876.93,1580.81 2878.93,1585.29C2880.99,1589.88 2880.83,1594.9 2878.96,1599.21L2870.6,1595.98ZM2856.75,1608.79C2852.48,1607.25 2848.84,1604.08 2846.86,1599.66C2845.1,1595.73 2844.96,1591.48 2846.13,1587.63L2854.54,1590.88C2854.2,1592.54 2854.34,1594.32 2855.09,1595.98C2856.01,1598.03 2857.67,1599.52 2859.62,1600.3L2856.75,1608.79ZM2860.6,1600.61C2862.44,1601.11 2864.46,1601.03 2866.35,1600.19C2867.97,1599.46 2869.26,1598.3 2870.13,1596.9L2878.54,1600.15C2876.78,1603.64 2873.84,1606.58 2869.99,1608.3C2865.96,1610.11 2861.63,1610.27 2857.72,1609.11L2860.6,1600.61ZM2722.79,1703.97L2640.23,1510.94L2640.68,1510.66C2641.33,1510.19 2641.83,1509.58 2642.18,1508.89L2810.03,1573.7C2809.78,1574.95 2810.01,1576.29 2810.8,1577.42C2811.67,1578.68 2813.02,1579.38 2814.44,1579.49L2821.18,1708.31C2820.93,1708.38 2820.69,1708.44 2820.45,1708.55C2819.96,1708.77 2819.54,1709.07 2819.17,1709.41L2818.48,1710.18C2818.02,1710.82 2817.72,1711.54 2817.6,1712.31L2729,1708.22C2728.95,1707.7 2728.84,1707.18 2728.61,1706.68C2727.6,1704.42 2725.1,1703.32 2722.79,1703.97ZM2342,1659.07C2342.32,1657.43 2342.16,1655.69 2341.43,1654.05C2341.27,1653.7 2341.09,1653.38 2340.89,1653.06L2348.4,1648.11C2348.87,1648.82 2349.29,1649.57 2349.65,1650.37C2351.23,1653.89 2351.5,1657.68 2350.69,1661.21L2342,1659.07ZM2327.14,1663.07C2329.53,1665.83 2333.53,1666.85 2337.07,1665.26C2339.42,1664.21 2341.06,1662.24 2341.77,1659.97L2350.48,1662.11C2349.1,1666.93 2345.67,1671.15 2340.71,1673.38C2333.63,1676.54 2325.59,1674.69 2320.65,1669.36L2327.14,1663.07ZM2326.18,1653.52C2324.93,1655.77 2324.68,1658.54 2325.81,1661.05C2326,1661.48 2326.25,1661.87 2326.5,1662.25L2319.98,1668.58C2319.04,1667.43 2318.22,1666.15 2317.58,1664.74C2315.19,1659.41 2315.77,1653.5 2318.58,1648.79L2326.18,1653.52ZM2326.52,1641.72C2326.75,1641.63 2326.97,1641.55 2327.2,1641.46L2330.25,1649.81L2330.16,1649.84C2328.73,1650.48 2327.59,1651.48 2326.73,1652.66L2319.14,1647.93C2320.92,1645.3 2323.42,1643.12 2326.52,1641.72ZM2528.74,1461.64C2529.2,1462.66 2529.84,1463.54 2530.57,1464.3L2345.83,1643.5C2340.98,1639.38 2334.14,1637.9 2327.77,1640.05L2292.21,1542.65C2293.99,1541.55 2294.88,1539.47 2294.46,1537.45L2528.74,1461.64ZM2348.81,1646.72C2348.15,1645.8 2347.41,1644.95 2346.6,1644.19L2531.33,1465C2534,1467.23 2537.8,1467.91 2541.2,1466.39C2543.09,1465.55 2544.52,1464.13 2545.47,1462.46L2586.46,1485.64C2585.85,1487.01 2585.9,1488.61 2586.66,1489.98L2348.81,1646.72ZM2338.51,1650.6C2336.43,1649.17 2333.77,1648.72 2331.22,1649.49L2328.15,1641.09C2334.1,1639.1 2340.48,1640.45 2345.03,1644.28L2338.51,1650.6ZM2345.81,1644.96C2346.57,1645.68 2347.26,1646.47 2347.89,1647.33L2340.35,1652.3C2340.04,1651.92 2339.71,1651.55 2339.34,1651.23L2345.81,1644.96ZM2604.05,1475.11L2603.98,1475.4C2603.88,1476.26 2603.98,1477.16 2604.36,1478.01L2604.49,1478.24L2594.77,1484.64C2593.19,1482.6 2590.28,1482.12 2588.13,1483.6C2587.64,1483.94 2587.24,1484.37 2586.92,1484.83L2545.9,1461.63L2546.17,1461.08C2546.27,1460.8 2546.36,1460.52 2546.44,1460.24L2604.05,1475.11ZM2327.77,1413.2L2528.08,1456.4C2528.05,1456.58 2528.01,1456.77 2527.99,1456.95L2527.91,1457.99C2527.93,1458.88 2528.13,1459.78 2528.41,1460.66L2294.14,1536.47L2294.14,1536.45C2293.63,1535.33 2292.75,1534.5 2291.71,1534.02L2322.29,1416.84C2323.19,1416.98 2324.14,1416.87 2325.04,1416.47C2326.46,1415.84 2327.41,1414.6 2327.77,1413.2ZM2719.28,1707.77L2506.09,1697.92C2506.1,1696.39 2505.82,1694.84 2505.16,1693.35C2502.69,1687.85 2496.22,1685.38 2490.71,1687.85C2487.89,1689.11 2485.9,1691.42 2484.94,1694.12L2351.77,1661.47C2352.63,1657.71 2352.35,1653.67 2350.66,1649.91C2350.28,1649.06 2349.82,1648.26 2349.33,1647.5L2587.19,1490.75C2588.79,1492.66 2591.6,1493.09 2593.7,1491.64C2595.73,1490.24 2596.34,1487.58 2595.26,1485.43L2604.99,1479.02C2606.32,1480.72 2608.64,1481.39 2610.7,1480.55L2721.58,1704.53C2720.36,1705.27 2719.54,1706.44 2719.28,1707.77ZM3147.27,1694.02C3144.84,1691.91 3141.31,1691.27 3138.15,1692.68C3136.08,1693.61 3134.58,1695.26 3133.76,1697.18L3125.4,1693.98C3127.06,1689.95 3130.21,1686.5 3134.52,1684.57C3141.1,1681.62 3148.52,1683.02 3153.5,1687.52L3147.27,1694.02ZM3148.31,1705.52C3150.18,1703.11 3150.73,1699.83 3149.42,1696.89C3149.05,1696.08 3148.55,1695.38 3147.98,1694.76L3154.24,1688.24C3155.62,1689.65 3156.79,1691.31 3157.64,1693.21C3160.38,1699.32 3159.22,1706.21 3155.25,1711.16L3148.31,1705.52ZM3148.7,1716.22C3146,1717.42 3143.16,1717.9 3140.41,1717.73L3141.29,1708.83C3142.54,1708.86 3143.83,1708.66 3145.06,1708.11C3146.06,1707.66 3146.92,1707.03 3147.65,1706.3L3154.58,1711.94C3152.99,1713.7 3151.01,1715.18 3148.7,1716.22ZM3352.86,1876.29L3131.72,1892.27C3131.69,1892.02 3131.68,1891.76 3131.63,1891.5L3310.31,1843.37C3310.46,1843.75 3310.63,1844.13 3310.87,1844.48C3312.41,1846.71 3315.45,1847.26 3317.67,1845.72C3317.93,1845.54 3318.16,1845.34 3318.38,1845.13L3353.63,1873.79C3353.15,1874.54 3352.89,1875.41 3352.86,1876.29ZM3302.66,2016.6C3301.04,2014.83 3298.33,2014.46 3296.3,2015.87C3295.98,2016.09 3295.71,2016.34 3295.47,2016.61L3130.36,1898.51C3131.34,1896.96 3131.87,1895.14 3131.83,1893.29L3352.93,1877.31C3353.05,1877.98 3353.3,1878.63 3353.71,1879.23C3355.25,1881.45 3358.29,1882.01 3360.52,1880.47C3360.75,1880.3 3360.96,1880.11 3361.16,1879.92L3414.02,1922.89C3413.08,1924.26 3412.85,1926.06 3413.57,1927.68C3413.78,1928.14 3414.06,1928.53 3414.38,1928.89L3302.66,2016.6ZM3394.33,1999.41C3393.13,1999.22 3391.87,1999.46 3390.8,2000.21C3388.92,2001.51 3388.25,2003.89 3389.02,2005.94L3333.25,2039.07C3331.67,2037.02 3328.76,2036.53 3326.61,2038.01C3326.4,2038.15 3326.23,2038.32 3326.05,2038.48L3303.34,2022.24C3304.15,2020.77 3304.17,2018.95 3303.28,2017.43L3415.14,1929.6C3415.55,1929.9 3415.99,1930.15 3416.46,1930.31L3394.33,1999.41ZM3368.3,2068.7L3333.83,2044.04C3334.41,2042.76 3334.42,2041.26 3333.79,2039.94L3389.48,2006.87L3389.56,2007.01C3390.04,2007.71 3390.68,2008.22 3391.39,2008.57L3372.62,2067.17C3371.44,2066.99 3370.19,2067.24 3369.13,2067.97C3368.82,2068.18 3368.55,2068.43 3368.3,2068.7ZM3251.31,2058.24C3252.93,2059.9 3255.55,2060.22 3257.54,2058.88L3268.71,2072.48C3267.33,2073.93 3266.99,2076.09 3267.85,2077.91L3097.04,2179.35L3251.31,2058.24ZM3295.02,2022.61L3258.3,2051.44C3256.7,2049.79 3254.15,2049.46 3252.17,2050.73L3128.75,1900.38C3129.1,1900.05 3129.43,1899.71 3129.73,1899.33L3294.86,2017.44C3293.96,2019 3293.95,2021 3295.02,2022.61ZM3301.86,2023.91C3302.2,2023.67 3302.5,2023.39 3302.76,2023.09L3325.38,2039.27C3324.42,2040.65 3324.23,2042.45 3324.92,2044.01L3276.19,2072.95C3274.63,2070.83 3271.67,2070.31 3269.49,2071.82L3258.32,2058.22C3259.85,2056.63 3260.13,2054.17 3258.93,2052.25L3295.67,2023.4C3297.31,2024.99 3299.9,2025.27 3301.86,2023.91ZM3091.53,2179.05L3121.9,1902.83C3123.35,1902.91 3124.84,1902.7 3126.26,1902.06C3126.89,1901.78 3127.45,1901.44 3127.98,1901.06L3251.37,2051.36C3249.76,2052.95 3249.44,2055.46 3250.67,2057.42L3094.01,2180.42C3093.33,2179.73 3092.46,2179.25 3091.53,2179.05ZM2905.05,2029.07C2911.15,2026.33 2915.07,2020.75 2915.95,2014.63L3019.85,2024.02C3019.83,2025.24 3020.04,2026.47 3020.45,2027.68L2884.93,2080.69C2884.3,2079.64 2883.34,2078.9 2882.23,2078.54L2893.58,2030.31C2897.31,2031.08 2901.31,2030.75 2905.05,2029.07ZM2895.88,2020.55C2897.54,2020.85 2899.3,2020.68 2900.96,2019.94C2903.63,2018.74 2905.39,2016.36 2905.89,2013.72L2914.84,2014.52C2914,2020.26 2910.32,2025.49 2904.6,2028.06C2901.08,2029.63 2897.33,2029.95 2893.84,2029.24L2895.88,2020.55ZM2888.99,2012.19C2888.97,2013.37 2889.18,2014.58 2889.7,2015.73C2890.72,2018.01 2892.66,2019.58 2894.89,2020.28L2892.83,2029.02C2887.95,2027.72 2883.68,2024.34 2881.47,2019.41C2880.31,2016.81 2879.86,2014.06 2880.02,2011.38L2888.99,2012.19ZM2890.42,1996.4C2893.81,1994.88 2897.42,1994.52 2900.81,1995.15L2898.76,2003.86C2897.21,2003.65 2895.59,2003.83 2894.05,2004.52C2891.24,2005.78 2889.46,2008.35 2889.07,2011.16L2880.12,2010.35C2880.84,2004.45 2884.56,1999.03 2890.42,1996.4ZM2901.06,1994.07C2897.44,1993.39 2893.58,1993.77 2889.96,1995.39C2883.72,1998.19 2879.76,2003.97 2879.02,2010.25L2749.1,1998.51C2749.11,1997.81 2748.99,1997.1 2748.68,1996.42C2748.3,1995.58 2747.71,1994.91 2747.01,1994.42L2976.68,1652.75C2977.99,1653.65 2979.42,1654.34 2980.93,1654.8L2901.06,1994.07ZM2914.97,2013.5L2905.99,2012.69C2906.08,2011.37 2905.9,2010.02 2905.32,2008.73C2904.24,2006.32 2902.15,2004.71 2899.76,2004.08L2901.81,1995.36C2906.85,1996.59 2911.28,2000 2913.54,2005.04C2914.77,2007.79 2915.22,2010.69 2914.97,2013.5ZM3040.72,2019.73C3039.96,2018.03 3038.79,2016.66 3037.41,2015.6L3117.43,1901.46C3118.48,1902.12 3119.65,1902.55 3120.87,1902.75L3090.51,2178.93C3090.3,2178.93 3090.09,2178.96 3089.89,2178.98L3035.1,2034.21L3035.22,2034.18C3040.73,2031.71 3043.19,2025.24 3040.72,2019.73ZM2991.7,1654.12C2991.93,1654.02 2992.14,1653.9 2992.36,1653.79L3117.48,1885.47C3113.52,1887.92 3111.85,1892.94 3113.81,1897.31C3114.46,1898.76 3115.45,1899.92 3116.61,1900.84L3036.59,2014.97C3033.6,2013.08 3029.75,2012.67 3026.28,2014.23C3022.62,2015.87 3020.35,2019.28 3019.93,2022.99L2916.08,2013.6C2916.34,2010.61 2915.87,2007.52 2914.56,2004.59C2912.15,1999.22 2907.43,1995.58 2902.07,1994.28L2981.93,1655.06C2985.09,1655.79 2988.51,1655.55 2991.7,1654.12ZM3125.05,1694.92L3133.44,1698.13C3132.9,1699.98 3132.95,1702.01 3133.8,1703.89C3135.01,1706.6 3137.5,1708.34 3140.25,1708.75L3139.38,1717.63C3133.5,1716.93 3128.14,1713.31 3125.57,1707.58C3123.71,1703.43 3123.66,1698.93 3125.05,1694.92ZM3124.56,1708.03C3127.3,1714.14 3133.01,1717.99 3139.28,1718.73L3122.98,1884.09C3121.5,1884 3120,1884.21 3118.55,1884.85L3118.39,1884.95L2993.26,1653.3C2995.95,1651.72 2998,1649.41 2999.28,1646.74L3124.01,1694.52C3122.53,1698.8 3122.58,1703.6 3124.56,1708.03ZM2885.36,2081.63L3020.77,2028.66L3020.77,2028.67C3023.08,2033.82 3028.88,2036.26 3034.13,2034.54L3088.88,2179.21C3088.74,2179.26 3088.6,2179.29 3088.47,2179.35C3086.69,2180.15 3085.63,2181.87 3085.58,2183.7L2862.05,2200.33C2861.94,2199.44 2861.74,2198.55 2861.35,2197.69C2860.18,2195.07 2857.95,2193.29 2855.39,2192.54L2879.99,2088.07C2880.89,2088.21 2881.84,2088.11 2882.74,2087.71C2885.08,2086.66 2886.17,2084.01 2885.36,2081.63ZM3275.66,2079.34C3277.13,2077.91 3277.55,2075.71 3276.71,2073.84L3325.44,2044.9C3326.99,2047.04 3329.98,2047.57 3332.17,2046.06C3332.62,2045.74 3332.99,2045.35 3333.3,2044.93L3367.7,2069.54C3366.77,2071.13 3366.77,2073.16 3367.89,2074.77C3368.37,2075.46 3368.99,2075.97 3369.69,2076.32L3343.88,2156.89C3342.83,2156.61 3341.69,2156.65 3340.62,2157.13C3340.35,2157.25 3340.11,2157.41 3339.88,2157.56L3275.66,2079.34ZM3461.48,1962.91L3453.72,1967.52C3453.54,1967.18 3453.36,1966.85 3453.2,1966.5C3450.77,1961.07 3451.41,1955.03 3454.36,1950.28L3461.83,1955.24C3460.55,1957.5 3460.3,1960.28 3461.43,1962.81L3461.48,1962.91ZM3476.1,1954.23C3473.78,1951.12 3469.51,1949.94 3465.79,1951.6C3464.37,1952.24 3463.24,1953.23 3462.39,1954.39L3454.94,1949.44C3456.71,1946.93 3459.14,1944.84 3462.15,1943.49C3470.08,1939.93 3479.24,1942.7 3483.86,1949.62L3476.1,1954.23ZM3476.64,1955.1L3484.42,1950.48C3484.73,1951.01 3485.02,1951.56 3485.27,1952.13C3487.76,1957.69 3487.03,1963.89 3483.89,1968.69L3476.47,1963.75C3477.93,1961.44 3478.24,1958.48 3477.05,1955.81C3476.93,1955.56 3476.77,1955.34 3476.64,1955.1ZM3472.69,1967.02C3473.98,1966.45 3475.02,1965.58 3475.85,1964.55L3483.31,1969.51C3481.56,1971.88 3479.21,1973.85 3476.33,1975.14C3468.17,1978.8 3458.71,1975.76 3454.23,1968.41L3462,1963.8C3464.2,1967.33 3468.74,1968.8 3472.69,1967.02ZM3421.91,1928.72L3453.44,1949.66C3450.28,1954.72 3449.6,1961.16 3452.19,1966.95C3452.36,1967.34 3452.57,1967.71 3452.77,1968.09L3397.26,2001.05C3396.72,2000.42 3396.06,1999.94 3395.33,1999.66L3417.47,1930.54C3418.33,1930.65 3419.23,1930.55 3420.09,1930.16C3420.83,1929.83 3421.44,1929.32 3421.91,1928.72ZM3490.25,1869.32L3422.1,1922.83C3420.77,1920.94 3418.25,1920.19 3416.06,1921.17C3415.53,1921.4 3415.08,1921.74 3414.68,1922.11L3361.82,1879.13C3362.31,1878.37 3362.58,1877.5 3362.6,1876.61L3489.58,1867.43C3489.67,1868.09 3489.88,1868.73 3490.25,1869.32ZM3155.44,1712.64L3310.83,1838.99C3310.17,1839.99 3309.91,1841.19 3310.07,1842.37L3131.32,1890.52C3131.22,1890.22 3131.15,1889.91 3131.01,1889.6C3129.68,1886.63 3126.99,1884.68 3124,1884.17L3140.3,1718.84C3143.24,1719.02 3146.27,1718.52 3149.15,1717.23C3151.63,1716.12 3153.74,1714.53 3155.44,1712.64ZM3091.87,1465.29L3628.01,1750.73C3627.91,1750.96 3627.82,1751.2 3627.74,1751.45L3221.74,1623.62C3221.93,1622.65 3221.84,1621.62 3221.41,1620.64C3220.29,1618.16 3217.38,1617.05 3214.9,1618.16C3214.58,1618.3 3214.29,1618.47 3214.03,1618.66L3089.08,1468.82C3090.19,1467.78 3091.13,1466.58 3091.87,1465.29ZM3084.83,1471.66C3086.11,1471.09 3087.27,1470.35 3088.3,1469.5L3213.26,1619.35C3211.99,1620.76 3211.59,1622.83 3212.41,1624.67C3212.56,1625 3212.75,1625.31 3212.95,1625.58L3154.27,1686.72C3148.97,1681.91 3141.07,1680.42 3134.06,1683.56C3129.48,1685.61 3126.13,1689.28 3124.37,1693.58L2999.69,1645.8C3001.2,1642.05 3001.25,1637.72 2999.47,1633.74C2997.98,1630.41 2995.45,1627.88 2992.44,1626.33L3034.85,1544.9C3036.06,1545.41 3037.46,1545.44 3038.75,1544.86C3041.24,1543.75 3042.35,1540.83 3041.24,1538.35C3040.83,1537.43 3040.17,1536.7 3039.38,1536.2L3072.85,1471.92C3076.58,1473.39 3080.88,1473.43 3084.83,1471.66ZM2990.46,1537.25C2994.62,1546.53 3005.65,1550.66 3015.05,1546.45C3019.57,1544.42 3022.88,1540.83 3024.66,1536.62L3031.96,1539.23C3031.72,1540.25 3031.78,1541.35 3032.24,1542.38C3032.62,1543.23 3033.23,1543.91 3033.94,1544.4L2991.5,1625.9C2987.67,1624.25 2983.19,1624.13 2979.09,1625.97C2978.76,1626.12 2978.44,1626.29 2978.13,1626.46L2955.38,1587.93C2957.11,1586.57 2957.78,1584.17 2956.83,1582.06C2955.74,1579.61 2952.89,1578.51 2950.43,1579.55L2902.5,1498.37C2904.07,1497.32 2905.25,1495.86 2905.95,1494.19L2989.78,1524.16C2988.44,1528.32 2988.54,1532.96 2990.46,1537.25ZM3013.07,1523.17C3010.65,1521.12 3007.17,1520.5 3004.05,1521.9C3001.92,1522.85 3000.38,1524.56 2999.58,1526.56L2991.15,1523.55C2992.77,1519.36 2995.98,1515.77 3000.42,1513.78C3007.04,1510.82 3014.51,1512.24 3019.49,1516.81L3013.07,1523.17ZM3015.56,1532.27C3016.24,1530.32 3016.22,1528.13 3015.32,1526.11C3014.94,1525.26 3014.41,1524.54 3013.81,1523.89L3020.21,1517.54C3021.56,1518.93 3022.71,1520.56 3023.55,1522.42C3025.43,1526.64 3025.46,1531.22 3023.99,1535.29L3015.56,1532.27ZM3015.16,1533.22L3023.62,1536.25C3021.94,1540.18 3018.83,1543.54 3014.6,1545.43C3005.76,1549.39 2995.38,1545.52 2991.47,1536.79C2989.67,1532.78 2989.57,1528.44 2990.82,1524.53L2999.28,1527.55C2998.81,1529.35 2998.89,1531.29 2999.7,1533.11C3001.61,1537.37 3006.65,1539.25 3010.96,1537.32C3012.89,1536.46 3014.3,1534.97 3015.16,1533.22ZM3129.55,1361.17L3086.15,1444.2C3082.03,1441.85 3076.89,1441.42 3072.22,1443.51C3068.84,1445.02 3066.27,1447.61 3064.74,1450.68L2816.04,1334.97C2816.61,1333.62 2816.99,1332.2 2817.16,1330.74L3126.64,1356.78C3126.65,1357.43 3126.79,1358.08 3127.07,1358.71C3127.59,1359.86 3128.49,1360.69 3129.55,1361.17ZM2634.24,1503.29L2634.14,1503.38L2633.53,1504.24C2632.8,1505.56 2632.65,1507.19 2633.32,1508.67C2634.35,1510.96 2636.91,1512.06 2639.26,1511.34L2717.42,1694.03L2611.53,1480.11L2611.75,1479.98L2611.97,1479.78L2634.24,1503.29ZM2678.08,1283.1L2219.88,1318.86C2219.74,1318.15 2219.55,1317.44 2219.24,1316.75C2218.94,1316.08 2218.56,1315.48 2218.14,1314.93L2334.22,1220.4C2340.28,1227.47 2350.87,1228.97 2358.69,1223.56C2362.5,1220.92 2365,1217.09 2366.05,1212.92L2678.22,1282.15C2678.15,1282.46 2678.09,1282.78 2678.08,1283.1ZM2787.67,1322.93L2687.72,1284.48C2688.02,1283.41 2687.99,1282.24 2687.5,1281.15C2687.34,1280.8 2687.14,1280.48 2686.91,1280.19L2763.97,1205.74C2768.13,1209.56 2773.93,1211.3 2779.64,1210.36L2798.58,1313.87C2797.56,1314.09 2796.54,1314.42 2795.55,1314.87C2791.85,1316.52 2789.13,1319.47 2787.67,1322.93ZM2813.82,1006.41L2555.18,728.443L2555.23,728.376L2684.49,819.128C2683.6,820.708 2683.61,822.721 2684.71,824.315C2686.17,826.425 2688.98,827.008 2691.17,825.746L2813.82,1006.41ZM2685.71,817.715C2685.46,817.916 2685.23,818.13 2685.03,818.366L2555.77,727.613C2556.67,726.032 2556.66,724.021 2555.55,722.425C2554.57,721.006 2552.97,720.274 2551.36,720.329L2535.45,598.792C2535.77,598.723 2536.08,598.629 2536.39,598.492C2536.51,598.434 2536.63,598.358 2536.75,598.291L2685.71,817.715ZM2233.01,1036.23C2232.57,1035.6 2232,1035.12 2231.38,1034.77L2256.87,977.979C2258.29,978.457 2259.9,978.299 2261.21,977.386C2263.23,975.995 2263.85,973.373 2262.82,971.24L2420.24,873.943C2420.85,874.861 2421.53,875.702 2422.28,876.475L2366.45,932.595C2364.83,931.481 2362.63,931.407 2360.91,932.594C2358.69,934.13 2358.14,937.174 2359.67,939.395L2359.68,939.402L2205.42,1094.47C2205.21,1094.31 2204.99,1094.16 2204.76,1094.03L2227.4,1043.62C2228.82,1044.11 2230.44,1043.95 2231.77,1043.03C2233.99,1041.5 2234.54,1038.45 2233.01,1036.23ZM2121.46,1058.61L2254.58,976.335C2254.98,976.863 2255.47,977.286 2256.02,977.598L2230.52,1034.39C2229.11,1033.92 2227.52,1034.08 2226.21,1034.99C2224.71,1036.03 2223.99,1037.75 2224.14,1039.45L2121.69,1059.26C2121.63,1059.04 2121.56,1058.82 2121.46,1058.61ZM2070.87,1052.58C2072.5,1054.28 2075.16,1054.61 2077.16,1053.22C2079.37,1051.69 2079.93,1048.67 2078.42,1046.46L2174.93,968.273C2176.57,969.93 2179.2,970.232 2181.18,968.861C2182.3,968.087 2183,966.926 2183.21,965.681L2253.55,973.305C2253.54,974.037 2253.71,974.771 2254.04,975.46L2120.93,1057.73C2119.37,1055.63 2116.42,1055.12 2114.24,1056.62C2112.21,1058.03 2111.59,1060.69 2112.67,1062.83L1882.92,1204.84L2070.87,1052.58ZM2057.06,1613.27C2056.23,1612.08 2054.96,1611.38 2053.63,1611.22L2057.49,1492.11C2058,1492.06 2058.5,1491.95 2058.98,1491.73C2061.47,1490.62 2062.58,1487.7 2061.47,1485.21C2061.25,1484.73 2060.95,1484.32 2060.61,1483.94L2133.75,1404.33C2135.09,1405.37 2136.91,1405.69 2138.58,1405.02L2222.17,1555.78C2220.55,1556.94 2219.84,1558.91 2220.23,1560.76L2057.58,1614.27C2057.44,1613.92 2057.28,1613.59 2057.06,1613.27ZM2050.81,1732.85C2050.03,1731.73 2048.87,1731.03 2047.63,1730.81L2051.22,1682.39C2051.7,1682.39 2052.18,1682.3 2052.65,1682.15L2075.73,1734.8L2075.61,1734.85C2071.59,1736.65 2068.52,1739.69 2066.63,1743.3L2051.46,1736.96C2051.85,1735.61 2051.67,1734.1 2050.81,1732.85ZM2100.61,1757.96L2188.07,1791.26C2187.69,1792.62 2187.87,1794.12 2188.73,1795.37C2188.8,1795.47 2188.9,1795.56 2188.98,1795.66L2132.24,1850.7C2130.9,1849.57 2129.02,1849.21 2127.29,1849.88L2091.44,1768.14C2095.82,1765.94 2099.01,1762.25 2100.61,1757.96ZM2168.2,1943.13L2131.23,1858.87C2133.61,1857.7 2134.66,1854.87 2133.57,1852.44C2133.4,1852.07 2133.19,1851.74 2132.95,1851.44L2189.71,1796.38C2191.35,1797.7 2193.71,1797.87 2195.53,1796.61C2196.25,1796.11 2196.77,1795.45 2197.13,1794.71L2212.55,1800.58C2212.06,1802.01 2212.21,1803.63 2213.13,1804.96C2213.71,1805.79 2214.49,1806.38 2215.37,1806.73L2178.89,1942.15C2175.42,1941.45 2171.71,1941.72 2168.2,1943.13ZM2179.61,1943.44C2184.49,1944.71 2188.75,1948.07 2190.95,1952.98C2191.1,1953.31 2191.22,1953.65 2191.34,1953.99L2182.86,1956.91L2182.77,1956.65C2181.7,1954.27 2179.64,1952.68 2177.29,1952.04L2179.61,1943.44ZM2176.29,1951.82C2174.95,1951.63 2173.55,1951.78 2172.2,1952.26L2168.64,1944.15C2171.92,1942.83 2175.37,1942.58 2178.6,1943.22L2176.29,1951.82ZM2233.68,1759.52L2407.28,1872.58C2407.11,1872.87 2406.98,1873.16 2406.84,1873.46L2221.96,1803.07C2222.19,1801.83 2221.95,1800.51 2221.18,1799.39C2220.59,1798.55 2219.78,1797.95 2218.89,1797.61L2228.69,1761.19C2229.72,1761.44 2230.84,1761.39 2231.89,1760.92C2232.62,1760.6 2233.21,1760.1 2233.68,1759.52ZM2484.33,1696.92L2304.61,1688.62C2304.55,1687.78 2304.29,1686.95 2303.77,1686.21C2303.71,1686.11 2303.63,1686.04 2303.55,1685.95L2319.86,1670.13C2325.12,1675.79 2333.65,1677.75 2341.16,1674.39C2346.44,1672.02 2350.1,1667.52 2351.56,1662.38L2484.69,1695.01C2484.52,1695.64 2484.39,1696.27 2484.33,1696.92ZM2502.6,1705.79C2504.54,1703.98 2505.74,1701.55 2506.01,1698.95L2719.19,1708.79C2719.2,1709.44 2719.34,1710.09 2719.62,1710.71C2720.73,1713.19 2723.65,1714.3 2726.13,1713.19C2727.78,1712.46 2728.8,1710.92 2728.99,1709.25L2817.56,1713.34C2817.58,1713.74 2817.67,1714.15 2817.8,1714.56L2598.34,1814.69C2598.26,1814.56 2598.2,1814.42 2598.11,1814.29C2596.6,1812.1 2593.62,1811.54 2591.4,1813L2502.6,1705.79ZM2597.6,1820.47C2598.85,1819.19 2599.26,1817.33 2598.74,1815.64L2818.23,1715.49L2818.62,1716.11C2819.99,1717.83 2822.38,1718.48 2824.48,1717.54C2826.59,1716.6 2827.69,1714.36 2827.3,1712.18L2827.17,1711.74L2971.58,1646.87C2972.63,1648.99 2974.09,1650.77 2975.85,1652.15L2746.12,1993.92C2744.9,1993.4 2743.48,1993.36 2742.17,1993.94C2741.96,1994.04 2741.78,1994.16 2741.59,1994.28L2597.6,1820.47ZM2647.19,1990.33L2739.27,1998.65C2739.3,1999.26 2739.43,1999.87 2739.69,2000.45C2739.95,2001.03 2740.31,2001.52 2740.73,2001.94L2691.13,2075.73C2689.9,2075.16 2688.46,2075.08 2687.12,2075.64L2645.14,1993.59L2645.15,1993.59C2646.29,1992.8 2646.99,1991.6 2647.19,1990.33ZM2637.63,1988.44L2622.19,1987.04C2622.17,1986.42 2622.04,1985.78 2621.77,1985.18C2620.79,1983 2618.43,1981.88 2616.19,1982.39L2563.45,1836.4L2563.54,1836.35L2639.81,1985.43L2639.58,1985.55C2638.56,1986.26 2637.9,1987.3 2637.63,1988.44ZM3210.86,2520.19L2860.08,2207.4C2861.45,2205.68 2862.22,2203.56 2862.17,2201.35L3085.65,2184.72C3085.72,2185.11 3085.82,2185.49 3085.99,2185.86C3087.08,2188.29 3089.9,2189.4 3092.35,2188.4L3216.51,2516.51C3216.37,2516.56 3216.23,2516.61 3216.09,2516.67C3214.1,2517.56 3212.36,2518.77 3210.86,2520.19ZM3217.46,2516.13L3093.26,2187.91C3095.19,2186.58 3095.97,2184.04 3094.98,2181.83L3094.96,2181.79L3268.38,2078.79C3269.91,2080.8 3272.71,2081.31 3274.85,2079.97L3339.09,2158.22C3337.74,2159.62 3337.29,2161.76 3338.14,2163.65C3338.69,2164.89 3339.71,2165.79 3340.89,2166.24L3228.93,2515.75C3225.27,2514.71 3221.28,2514.77 3217.46,2516.13ZM3217.86,2517.17C3221.42,2515.9 3225.17,2515.84 3228.59,2516.81L3225.86,2525.36C3224.3,2524.95 3222.64,2524.99 3221.02,2525.52L3217.86,2517.17ZM3218.39,2526.91L3211.69,2520.93C3213.08,2519.62 3214.7,2518.51 3216.54,2517.68C3216.66,2517.63 3216.78,2517.59 3216.9,2517.54L3220.05,2525.88C3219.45,2526.16 3218.9,2526.51 3218.39,2526.91ZM3626.6,2063.97L4017.32,2320.49L4017.29,2320.54L3632.62,2128.71C3635.04,2123.91 3635.36,2118.15 3633.02,2112.92C3630.33,2106.93 3624.78,2103.1 3618.65,2102.26L3622.4,2065.97C3623.15,2066.01 3623.92,2065.89 3624.65,2065.56C3625.46,2065.2 3626.1,2064.64 3626.6,2063.97ZM3638.51,1855.64L3499.17,1865.71C3499.04,1865.17 3498.82,1864.64 3498.5,1864.15L3629.93,1760.96C3631.78,1762.85 3634.32,1763.89 3636.95,1763.82L3642.73,1850.59C3642.29,1850.65 3641.85,1850.75 3641.42,1850.94C3639.53,1851.79 3638.44,1853.69 3638.51,1855.64ZM3525.75,1326.5C3525.98,1326.4 3526.17,1326.27 3526.38,1326.14L3718.19,1551.56C3717.01,1552.39 3716.23,1553.63 3715.92,1554.99L3093.78,1459.77C3094.04,1457.98 3094,1456.13 3093.6,1454.31L3519.21,1323.94L3519.24,1324.02C3520.35,1326.5 3523.27,1327.61 3525.75,1326.5ZM3844.86,1224.19C3845.07,1224.85 3845.3,1225.5 3845.6,1226.15C3847.52,1230.45 3850.94,1233.63 3854.97,1235.4L3722.3,1550.57C3721.27,1550.43 3720.18,1550.54 3719.16,1551L3719.1,1551.04L3527.18,1325.5C3528.34,1324.36 3528.88,1322.7 3528.56,1321.07L3844.86,1224.19ZM3845.64,1222.87C3845.4,1221.91 3845.25,1220.95 3845.18,1219.98L3854.19,1219.49C3854.21,1219.73 3854.23,1219.98 3854.27,1220.22L3845.64,1222.87ZM3859.83,1226.51C3861.81,1227.17 3864.04,1227.15 3866.1,1226.22L3866.23,1226.14L3870.89,1233.75C3870.51,1233.95 3870.13,1234.16 3869.73,1234.33C3865.32,1236.31 3860.53,1236.34 3856.35,1234.79L3859.83,1226.51ZM3855.4,1234.38C3851.62,1232.72 3848.42,1229.74 3846.61,1225.7C3846.33,1225.09 3846.11,1224.48 3845.92,1223.86L3854.57,1221.21C3854.66,1221.48 3854.72,1221.75 3854.83,1222.01C3855.67,1223.89 3857.15,1225.28 3858.89,1226.11L3855.4,1234.38ZM3449.64,1242.27L3170.65,1357.08C3170.4,1356.66 3170.12,1356.28 3169.78,1355.96L3253.17,1260.95C3254.54,1261.93 3256.38,1262.19 3258.03,1261.45C3259.87,1260.62 3260.95,1258.81 3260.94,1256.91L3449.52,1241.64C3449.55,1241.85 3449.58,1242.06 3449.64,1242.27ZM3174.28,1271.96C3175.81,1274.18 3178.86,1274.73 3181.08,1273.2C3182.5,1272.21 3183.23,1270.61 3183.17,1269L3251.26,1258.2C3251.33,1258.46 3251.41,1258.72 3251.52,1258.97C3251.62,1259.2 3251.75,1259.42 3251.89,1259.62L3135.17,1353.37L3134.93,1353.09L3134.09,1352.47C3132.76,1351.68 3131.08,1351.52 3129.56,1352.2C3128.04,1352.88 3127.04,1354.24 3126.74,1355.76L2817.25,1329.72C2817.3,1328.83 2817.28,1327.93 2817.16,1327.04L3048.45,1290.36C3048.71,1291.76 3049.12,1293.15 3049.72,1294.5C3053.88,1303.78 3064.91,1307.91 3074.32,1303.69C3081.97,1300.27 3086.21,1292.35 3085.29,1284.52L3173.62,1270.51C3173.76,1271.02 3173.96,1271.5 3174.28,1271.96ZM3031.18,1152.69L3061.38,1269.23C3060.66,1269.45 3059.94,1269.71 3059.23,1270.02C3051.53,1273.47 3047.28,1281.46 3048.28,1289.35L2816.99,1326.02C2816.77,1324.88 2816.43,1323.74 2815.93,1322.63C2815.47,1321.6 2814.9,1320.65 2814.26,1319.77L3026.9,1151.29C3028.02,1152.44 3029.63,1152.94 3031.18,1152.69ZM2970.96,961.559L2853.7,999.131C2853.58,998.881 2853.46,998.634 2853.29,998.4C2852.59,997.385 2851.57,996.737 2850.46,996.46L2851.95,986.146C2852.73,986.199 2853.52,986.09 2854.28,985.751C2856.2,984.889 2857.28,982.943 2857.17,980.957L2970.86,961.2C2970.89,961.322 2970.93,961.44 2970.96,961.559ZM2850.26,970.018C2850.94,970.995 2851.91,971.627 2852.97,971.924L2852.33,976.341C2851.63,976.328 2850.92,976.449 2850.24,976.755C2849.27,977.192 2848.52,977.91 2848.01,978.77L2831.73,970.967C2831.92,970.412 2832.01,969.821 2831.99,969.229L2849.47,968.034C2849.59,968.726 2849.84,969.402 2850.26,970.018ZM2734.99,560.319C2736.05,561.845 2737.81,562.562 2739.54,562.376L2825.07,960.529L2710.41,559.213C2711.08,559.001 2711.75,558.754 2712.41,558.458C2716.49,556.632 2719.59,553.531 2721.47,549.85L2734.42,555.902C2733.91,557.332 2734.06,558.976 2734.99,560.319ZM2715.38,443.755C2715.89,443.529 2716.32,443.221 2716.7,442.861L2898.99,630.146C2898.65,630.485 2898.35,630.867 2898.12,631.287L2743.64,559.076C2744.1,557.667 2743.94,556.071 2743.04,554.757C2741.96,553.209 2740.16,552.493 2738.41,552.706L2715.03,443.863C2715.15,443.822 2715.27,443.807 2715.38,443.755ZM2539.22,593.216L2687.13,547.493C2687.33,548.087 2687.55,548.676 2687.82,549.26C2691.54,557.573 2700.78,561.728 2709.41,559.49L2825.23,964.83L2825.06,964.885C2822.58,965.996 2821.47,968.914 2822.58,971.397C2823.16,972.682 2824.22,973.587 2825.45,974.021L2818.19,1006.34C2817.21,1006.23 2816.2,1006.41 2815.29,1006.91L2691.92,825.203C2693.78,823.591 2694.18,820.821 2692.75,818.751C2691.34,816.706 2688.65,816.096 2686.5,817.209L2537.52,597.766C2538.84,596.657 2539.49,594.927 2539.22,593.216ZM2566.66,484.993C2567.7,487.3 2569.55,488.973 2571.72,489.854L2535.45,589.202C2534.45,588.979 2533.37,589.044 2532.36,589.495C2530.17,590.477 2529.05,592.863 2529.58,595.115L2422.77,628.132C2422.69,627.937 2422.66,627.734 2422.57,627.536C2420.44,622.785 2414.86,620.661 2410.11,622.791C2405.36,624.918 2403.23,630.496 2405.36,635.246C2405.82,636.274 2406.47,637.152 2407.21,637.917L2407.96,638.615C2408.17,638.791 2408.4,638.938 2408.63,639.094L2294.45,811.697C2292.89,810.869 2290.94,810.9 2289.39,811.976C2287.17,813.511 2286.61,816.557 2288.15,818.777C2289.68,820.998 2292.73,821.554 2294.95,820.019C2295.69,819.506 2296.23,818.815 2296.58,818.053L2418.03,858.254C2417.24,860.729 2416.96,863.361 2417.27,865.987L2277.62,887.128C2277.48,886.574 2277.25,886.031 2276.91,885.535C2275.37,883.313 2272.33,882.757 2270.11,884.294C2268.39,885.485 2267.68,887.581 2268.16,889.497L2131.62,937.938C2131.5,937.693 2131.38,937.45 2131.22,937.219C2129.68,934.999 2126.64,934.443 2124.42,935.979C2123.15,936.856 2122.45,938.225 2122.34,939.65L2088.7,940.456C2088.6,939.705 2088.35,938.966 2087.89,938.301C2086.36,936.081 2083.31,935.524 2081.09,937.061C2079.84,937.928 2079.14,939.278 2079.02,940.687L1988.78,942.846C1988.69,942.081 1988.44,941.325 1987.97,940.646C1986.43,938.426 1983.39,937.871 1981.17,939.407C1978.95,940.944 1978.39,943.989 1979.93,946.209C1980.4,946.894 1981.03,947.399 1981.72,947.754L1879.39,1203.6C1878.26,1203.21 1876.99,1203.22 1875.81,1203.75C1873.33,1204.87 1872.21,1207.78 1873.33,1210.26C1874.16,1212.12 1876.01,1213.21 1877.92,1213.18L1878.95,1213.04C1879.25,1212.97 1879.55,1212.88 1879.84,1212.75C1881.31,1212.09 1882.29,1210.78 1882.62,1209.32L2059.46,1269.38C2059.37,1270.21 2059.47,1271.08 2059.84,1271.89C2060.26,1272.84 2060.95,1273.58 2061.77,1274.08L1895.26,1655.06C1893.58,1654.39 1891.78,1654.03 1889.95,1653.98L1888.92,1653.98C1887.02,1654.06 1885.1,1654.48 1883.26,1655.31C1875.49,1658.79 1872.01,1667.92 1875.49,1675.7C1877.1,1679.28 1879.91,1681.93 1883.23,1683.43L1884.18,1683.83C1887.85,1685.2 1892.02,1685.19 1895.87,1683.46C1896.98,1682.97 1897.99,1682.35 1898.92,1681.64L2032.03,1840.74C2029.17,1843.42 2028.14,1847.68 2029.83,1851.46C2030.72,1853.44 2032.23,1854.94 2034.01,1855.88L1961.74,2011.64C1959.29,2010.38 1956.31,2010.17 1953.59,2011.38C1953.26,2011.53 1952.98,2011.73 1952.68,2011.91L1951.8,2012.45C1948.35,2015.04 1947,2019.74 1948.84,2023.84C1950.97,2028.59 1956.55,2030.72 1961.3,2028.59C1965.36,2026.77 1967.47,2022.44 1966.69,2018.26L2157.19,1965.35C2157.42,1966.15 2157.69,1966.94 2158.04,1967.73C2162.18,1976.95 2173.15,1981.05 2182.5,1976.86C2191.16,1972.98 2195.43,1963.33 2192.72,1954.6L2406.72,1880.82C2406.76,1880.92 2406.78,1881.03 2406.82,1881.13C2408.95,1885.88 2414.53,1888.01 2419.28,1885.88C2424.03,1883.75 2426.16,1878.17 2424.03,1873.42C2423.11,1871.38 2421.54,1869.86 2419.69,1868.91L2490.95,1707.88C2493.64,1709.01 2496.77,1709.09 2499.65,1707.8L2499.89,1707.67L2558.54,1827.91C2556.25,1829.11 2555.24,1831.88 2556.32,1834.27C2557.17,1836.19 2559.11,1837.26 2561.09,1837.14L2576.26,1965.55C2574.71,1965.81 2573.17,1966.24 2571.67,1966.92C2562.27,1971.13 2558,1982.11 2562.16,1991.39C2564.25,1996.05 2568.08,1999.41 2572.55,2001.07L2548.64,2065.77C2547.36,2065.63 2546.03,2065.78 2544.77,2066.34C2541.05,2068.01 2539.38,2072.38 2541.05,2076.1C2542.69,2079.74 2546.9,2081.39 2550.57,2079.89L2607.45,2170.54C2600.25,2175.56 2597.36,2185.07 2601.03,2193.27C2603,2197.68 2606.54,2200.91 2610.71,2202.65L2535.32,2399.37C2533.69,2398.87 2531.9,2398.91 2530.23,2399.66C2526.55,2401.3 2524.91,2405.61 2526.56,2409.29C2528.21,2412.96 2532.51,2414.61 2536.19,2412.96C2537.3,2412.46 2538.21,2411.69 2538.91,2410.79L2745.61,2550.83C2744.08,2553.38 2743.77,2556.61 2745.08,2559.53C2747.21,2564.28 2752.78,2566.41 2757.54,2564.28C2761.84,2562.35 2763.96,2557.59 2762.74,2553.18L2900.38,2506.93L2900.4,2507C2901.78,2510.06 2905.37,2511.43 2908.43,2510.06C2910.33,2509.21 2911.58,2507.49 2911.92,2505.59L3205.04,2532.69C3204.88,2535.51 3205.36,2538.4 3206.59,2541.15C3210.75,2550.43 3221.78,2554.56 3231.18,2550.35C3240.58,2546.14 3244.84,2535.16 3240.68,2525.87C3239.31,2522.8 3237.17,2520.31 3234.59,2518.48L3412.53,2254.29C3413.92,2255.34 3415.81,2255.65 3417.52,2254.89C3417.75,2254.78 3417.95,2254.65 3418.15,2254.53L3619.01,2499.2C3615.91,2501.12 3614.6,2505.01 3616.11,2508.37C3617.75,2512.04 3622.11,2513.66 3625.85,2511.99C3629.58,2510.32 3631.28,2505.98 3629.63,2502.31C3629.5,2502.01 3629.32,2501.74 3629.15,2501.47L4017.25,2329.17C4019.52,2333.6 4024.86,2335.55 4029.47,2333.49C4034.22,2331.36 4036.34,2325.79 4034.22,2321.03C4033.2,2318.76 4031.38,2317.12 4029.26,2316.22L4223.64,1822.56C4225.8,1823.27 4228.22,1823.25 4230.46,1822.24C4235.21,1820.12 4237.33,1814.54 4235.21,1809.79C4233.08,1805.04 4227.5,1802.91 4222.75,1805.04C4222.53,1805.13 4222.35,1805.27 4222.15,1805.38L3872.36,1234.18C3880.21,1229.35 3883.51,1219.4 3879.69,1210.87C3875.53,1201.59 3864.5,1197.46 3855.1,1201.67C3848.04,1204.83 3843.88,1211.81 3844,1219.01L3459.2,1240.07C3459.13,1239.68 3459.03,1239.3 3458.86,1238.93C3458.02,1237.04 3456.13,1235.95 3454.17,1236.03L3392.97,871.402C3393.57,871.262 3394.18,871.066 3394.76,870.806C3399.51,868.676 3401.63,863.101 3399.51,858.349C3397.38,853.597 3391.8,851.471 3387.05,853.599C3385.44,854.318 3384.17,855.455 3383.22,856.798L3382.68,857.673L3382.63,857.767L3382.17,858.69C3381.25,860.983 3381.21,863.625 3382.3,866.058C3382.56,866.626 3382.86,867.15 3383.21,867.641L3033.86,1144.46C3032.77,1143.34 3031.23,1142.85 3029.74,1143.05L2984.75,969.429C2985.18,969.299 2985.61,969.191 2986.03,969.004C2991.54,966.534 2994,960.069 2991.54,954.561C2989.07,949.051 2982.6,946.584 2977.09,949.055C2973.1,950.84 2970.76,954.725 2970.69,958.821L2859.09,966.442C2858.98,965.75 2858.73,965.07 2858.3,964.455C2857.58,963.411 2856.52,962.749 2855.37,962.485L2902.22,638.585C2902.95,638.615 2903.71,638.499 2904.42,638.177C2905.32,637.774 2906.04,637.127 2906.54,636.355L2907.01,635.443C2907.46,634.261 2907.46,632.911 2906.9,631.665C2905.79,629.184 2902.88,628.072 2900.39,629.185C2900.15,629.291 2899.93,629.417 2899.72,629.554L2717.31,442.151L2717.75,441.473C2718.39,440.191 2718.5,438.654 2717.87,437.245C2716.75,434.762 2713.84,433.648 2711.36,434.762C2708.87,435.873 2707.76,438.791 2708.88,441.275C2709.51,442.7 2710.75,443.652 2712.17,444.014L2705.77,523.166C2702.96,523.054 2700.07,523.553 2697.32,524.786C2693.31,526.586 2690.24,529.622 2688.35,533.233L2584.08,484.491C2584.93,482.233 2584.93,479.656 2583.87,477.285C2581.74,472.533 2576.16,470.407 2571.41,472.537C2566.66,474.666 2564.53,480.241 2566.66,484.993Z" style="fill-rule:nonzero;"/>
    </g>
</svg>
